<?xml version="1.0" standalone="no"?>
<!DOCTYPE svg PUBLIC "-//W3C//DTD SVG 20010904//EN"
 "http://www.w3.org/TR/2001/REC-SVG-20010904/DTD/svg10.dtd">
<svg version="1.0" xmlns="http://www.w3.org/2000/svg"
 width="1563.000000pt" height="1563.000000pt" viewBox="0 0 1563.000000 1563.000000"
 preserveAspectRatio="xMidYMid meet">

<g transform="translate(0.000000,1563.000000) scale(0.100000,-0.100000)"
fill="#000000" stroke="none">
<path d="M7820 13821 c0 -5 26 -19 57 -32 31 -13 80 -42 109 -65 54 -44 115
-85 174 -117 19 -11 39 -25 43 -33 16 -27 98 -54 166 -54 38 -1 76 -7 91 -15
14 -8 46 -14 72 -15 26 0 50 -4 53 -10 3 -5 25 -10 49 -10 23 0 51 -7 62 -15
10 -8 35 -15 54 -15 19 0 44 -7 54 -15 11 -8 32 -15 47 -15 15 0 31 -4 34 -10
3 -5 19 -10 34 -10 15 0 36 -7 47 -15 10 -8 31 -15 46 -15 14 0 28 -5 30 -11
2 -6 16 -11 31 -11 15 0 32 -7 38 -14 6 -8 24 -14 39 -14 15 0 33 -7 40 -15 7
-8 21 -15 31 -15 10 0 21 -4 24 -10 3 -5 15 -10 25 -10 10 0 31 -6 47 -14 15
-8 44 -21 63 -29 65 -28 155 -69 170 -78 8 -4 29 -16 47 -25 18 -9 37 -22 44
-30 6 -8 16 -14 21 -14 6 0 37 -18 70 -40 33 -22 63 -40 66 -40 3 0 20 -11 38
-25 18 -14 36 -25 40 -25 4 0 22 -11 40 -25 18 -14 36 -25 41 -25 4 0 19 -10
33 -23 14 -12 38 -31 55 -41 38 -25 128 -98 185 -150 25 -23 65 -57 90 -76 56
-42 243 -229 292 -290 20 -25 57 -67 82 -95 25 -27 67 -81 93 -119 27 -39 58
-82 71 -96 12 -14 22 -30 22 -36 0 -6 11 -23 25 -38 14 -15 25 -30 25 -34 0
-4 10 -18 23 -32 13 -14 26 -32 30 -40 11 -22 29 -51 52 -85 12 -17 30 -48 40
-70 11 -22 22 -42 25 -45 3 -3 24 -45 48 -95 24 -49 48 -97 53 -105 5 -8 12
-22 15 -30 18 -45 27 -68 40 -93 8 -16 14 -34 14 -42 0 -7 7 -18 15 -25 8 -7
15 -23 15 -36 0 -13 5 -24 10 -24 6 0 10 -9 10 -21 0 -11 6 -33 14 -47 8 -15
17 -36 21 -47 6 -19 7 -19 19 -2 8 9 26 17 43 17 16 0 34 5 41 12 13 13 90 20
145 12 31 -5 37 -10 37 -29 0 -13 5 -27 10 -30 25 -16 -5 134 -33 161 -4 4 -7
15 -7 25 0 9 -6 30 -14 46 -8 15 -22 46 -31 68 -25 61 -31 74 -65 150 -17 39
-35 79 -40 90 -23 58 -100 204 -111 211 -5 3 -9 14 -9 25 0 10 -3 19 -8 19 -4
0 -13 14 -20 30 -8 17 -19 36 -25 43 -13 13 -90 127 -96 141 -11 27 -220 307
-253 339 -21 21 -38 42 -38 47 0 15 -374 391 -417 420 -21 14 -54 41 -74 60
-20 19 -57 51 -83 70 -26 19 -53 41 -61 48 -7 6 -18 12 -23 12 -5 0 -15 7 -22
15 -13 16 -128 95 -138 95 -3 0 -15 8 -26 18 -23 21 -219 142 -229 142 -4 0
-30 15 -59 33 -74 46 -269 140 -378 182 -25 10 -59 24 -77 31 -17 8 -38 14
-46 14 -9 0 -19 5 -22 10 -3 6 -13 10 -22 10 -8 0 -29 6 -46 14 -18 7 -59 21
-92 31 -33 10 -69 21 -80 25 -11 4 -36 13 -55 20 -19 6 -53 16 -75 20 -22 4
-53 12 -68 19 -16 6 -41 11 -57 11 -16 0 -32 5 -35 10 -3 6 -24 10 -46 10 -22
0 -49 4 -59 10 -19 10 -104 23 -265 40 -49 6 -112 14 -138 20 -59 12 -387 13
-387 1z m740 -105 c0 -11 -19 -15 -25 -6 -3 5 1 10 9 10 9 0 16 -2 16 -4z
m1107 -372 c-3 -3 -12 -4 -19 -1 -8 3 -5 6 6 6 11 1 17 -2 13 -5z m903 -630
c0 -2 -7 -4 -15 -4 -8 0 -15 4 -15 10 0 5 7 7 15 4 8 -4 15 -8 15 -10z"/>
<path d="M7078 13763 c12 -2 30 -2 40 0 9 3 -1 5 -23 4 -22 0 -30 -2 -17 -4z"/>
<path d="M6950 13740 c-12 -8 -10 -10 8 -10 13 0 20 4 17 10 -7 12 -6 12 -25
0z"/>
<path d="M6853 13713 c9 -2 25 -2 35 0 9 3 1 5 -18 5 -19 0 -27 -2 -17 -5z"/>
<path d="M6760 13680 c0 -5 -17 -10 -39 -10 -22 0 -44 -6 -51 -15 -7 -8 -28
-15 -46 -15 -19 0 -34 -4 -34 -10 0 -5 -10 -10 -23 -10 -13 0 -32 -7 -43 -15
-10 -8 -26 -14 -34 -15 -13 0 -109 -38 -265 -104 -153 -65 -435 -219 -580
-316 -38 -26 -95 -64 -125 -84 -70 -46 -120 -82 -145 -105 -11 -10 -25 -20
-31 -22 -7 -2 -37 -28 -68 -56 -32 -29 -61 -53 -66 -53 -14 0 -380 -370 -380
-385 0 -7 4 -16 9 -19 18 -11 33 -126 29 -230 -2 -74 1 -110 8 -113 6 -2 38
29 70 69 32 40 61 75 64 78 3 3 46 50 95 105 112 124 98 110 175 179 36 33 85
78 110 100 111 103 383 306 410 306 4 0 10 3 12 8 3 8 77 57 123 83 17 9 46
26 65 37 19 12 100 54 180 93 80 39 157 78 172 85 14 8 34 14 44 14 16 0 16 1
-1 20 -16 18 -16 27 -5 102 6 46 23 106 36 135 22 45 30 53 60 59 19 3 34 10
34 15 0 5 13 9 28 9 15 0 32 4 38 9 5 4 43 16 84 26 41 9 91 26 110 36 35 18
35 18 8 19 -16 0 -28 -4 -28 -10z"/>
<path d="M6833 13423 c9 -2 25 -2 35 0 9 3 1 5 -18 5 -19 0 -27 -2 -17 -5z"/>
<path d="M6750 13400 c0 -5 9 -10 20 -10 11 0 20 5 20 10 0 6 -9 10 -20 10
-11 0 -20 -4 -20 -10z"/>
<path d="M6665 13370 c3 -5 12 -10 20 -10 8 0 17 5 20 10 4 6 -5 10 -20 10
-15 0 -24 -4 -20 -10z"/>
<path d="M6590 13350 c-12 -8 -9 -10 13 -10 16 0 26 4 22 10 -8 12 -16 12 -35
0z"/>
<path d="M6530 13320 c0 -5 5 -10 10 -10 6 0 10 5 10 10 0 6 -4 10 -10 10 -5
0 -10 -4 -10 -10z"/>
<path d="M6478 13293 c7 -3 16 -2 19 1 4 3 -2 6 -13 5 -11 0 -14 -3 -6 -6z"/>
<path d="M8451 12390 c-30 -22 -59 -47 -65 -57 -15 -29 -27 -33 -98 -33 -37 0
-70 -4 -73 -10 -11 -18 -39 -10 -73 20 -44 39 -93 53 -158 48 -42 -4 -61 -11
-82 -31 -16 -15 -35 -27 -43 -27 -9 0 -19 -3 -22 -7 -4 -3 -41 -7 -82 -8 l-75
-1 -58 -59 -57 -60 -87 3 c-63 3 -92 0 -103 -10 -30 -27 -43 -36 -73 -52 -18
-9 -37 -32 -48 -56 -10 -22 -21 -40 -26 -40 -15 0 -9 -120 8 -145 17 -26 15
-30 -62 -94 -33 -27 -92 -31 -126 -7 -28 20 -78 21 -104 1 -10 -8 -29 -15 -41
-15 -26 0 -113 -81 -113 -103 0 -21 -88 -107 -109 -107 -10 0 -33 8 -52 17
-45 23 -103 21 -164 -7 -52 -24 -114 -84 -115 -111 0 -9 -7 -22 -15 -29 -17
-14 -21 -95 -6 -105 6 -3 -5 -37 -25 -77 -33 -70 -45 -141 -26 -163 4 -6 14
-27 21 -48 12 -36 11 -40 -11 -60 -41 -39 -70 -111 -66 -165 3 -26 8 -55 12
-64 6 -14 -2 -22 -41 -40 -66 -32 -130 -101 -138 -153 -8 -53 -8 -93 0 -131 5
-22 2 -34 -9 -43 -9 -8 -16 -28 -16 -46 0 -28 -4 -34 -27 -39 -59 -14 -114
-50 -148 -98 -32 -44 -35 -54 -35 -121 0 -55 5 -79 20 -102 24 -36 26 -78 5
-95 -9 -7 -14 -18 -12 -24 2 -6 -14 -31 -36 -55 -34 -37 -39 -48 -34 -77 13
-76 -20 -140 -49 -99 -8 11 -23 15 -46 13 -29 -3 -33 -7 -36 -34 -2 -24 3 -35
28 -54 16 -12 30 -30 30 -40 0 -19 -64 -50 -104 -50 -14 0 -29 -7 -32 -15 -4
-9 -19 -15 -38 -15 -21 0 -40 -8 -55 -24 -13 -14 -39 -26 -64 -30 -33 -5 -54
-19 -99 -64 -55 -53 -58 -59 -58 -105 0 -38 5 -53 24 -70 13 -12 26 -31 30
-42 3 -11 26 -36 51 -55 29 -23 44 -43 45 -58 0 -21 -3 -22 -34 -16 -32 6 -36
3 -60 -35 -14 -22 -26 -48 -26 -56 0 -9 -7 -18 -15 -21 -8 -4 -15 -14 -15 -24
0 -10 7 -23 15 -30 20 -17 19 -26 -10 -64 -22 -29 -25 -43 -25 -112 0 -77 1
-79 38 -117 24 -25 33 -41 25 -44 -7 -3 -13 -16 -13 -29 0 -14 -6 -27 -14 -30
-20 -8 -21 -137 -1 -154 8 -7 15 -19 15 -26 0 -8 4 -22 9 -32 5 -9 12 -25 15
-34 3 -10 14 -18 24 -18 10 0 29 -11 42 -25 13 -14 29 -25 36 -25 7 0 25 -11
40 -25 15 -14 39 -25 55 -25 15 0 31 -4 34 -10 3 -5 21 -10 39 -10 18 0 45 -9
59 -20 18 -15 41 -20 84 -20 34 -1 66 -6 76 -15 12 -8 37 -12 71 -10 78 4 96
-14 96 -102 0 -61 3 -72 25 -93 26 -24 36 -90 14 -90 -7 0 -9 -12 -5 -35 5
-27 2 -42 -13 -64 -12 -16 -21 -33 -21 -39 0 -5 -7 -15 -15 -22 -8 -7 -15 -19
-15 -28 0 -8 -11 -30 -25 -48 -14 -18 -25 -36 -25 -40 0 -4 -12 -20 -26 -35
-15 -16 -28 -43 -31 -67 -5 -35 -1 -44 32 -81 21 -22 43 -41 50 -41 7 0 18 -7
25 -15 7 -8 20 -15 30 -15 34 0 50 -33 50 -102 0 -63 1 -66 39 -100 l40 -35
-19 -39 c-24 -47 -14 -97 25 -134 20 -19 25 -33 25 -74 0 -62 -10 -80 -39 -71
-11 3 -21 11 -21 16 0 5 -10 9 -21 9 -12 0 -27 7 -34 16 -9 13 -16 14 -30 7
-16 -9 -15 -11 9 -17 14 -3 26 -13 26 -21 0 -8 5 -15 12 -15 6 0 9 -3 6 -6 -4
-3 -16 0 -28 6 -13 7 -37 9 -60 5 -38 -6 -38 -7 -19 -26 16 -16 33 -19 99 -19
68 0 82 -3 87 -17 9 -26 54 -73 70 -73 7 0 13 -4 13 -9 0 -5 22 -11 50 -15 27
-4 52 -11 55 -16 3 -6 31 -10 61 -10 56 0 70 -14 39 -40 -9 -8 -15 -29 -15
-55 0 -29 -11 -64 -31 -104 -17 -33 -29 -67 -26 -74 3 -8 40 -31 84 -51 43
-21 85 -42 93 -47 67 -39 131 -63 179 -66 31 -2 70 -10 86 -18 100 -46 303
-85 603 -115 145 -15 604 -33 682 -27 137 11 261 25 268 31 3 4 -10 23 -30 44
-20 20 -50 64 -68 97 -19 33 -44 78 -56 101 -70 125 -106 211 -134 314 -7 25
-26 76 -42 115 -24 55 -31 88 -35 165 -5 94 -17 153 -73 340 -35 119 -50 183
-50 218 0 15 -7 49 -15 76 -8 27 -15 71 -15 97 0 29 -9 65 -24 96 -13 26 -32
68 -41 93 -24 59 -94 204 -150 310 -24 47 -45 91 -45 97 0 7 -18 42 -40 78
-22 36 -40 69 -40 74 0 5 -7 14 -16 21 -23 20 -14 64 14 68 12 2 22 10 22 18
0 16 -36 19 -45 4 -17 -27 -42 -7 -68 54 -29 66 -42 76 -112 92 -32 7 -86 43
-123 83 -27 29 -80 135 -92 182 -4 19 -13 48 -19 64 -27 79 -46 183 -61 335
-33 327 -35 339 -95 480 -16 36 -31 79 -36 95 -26 103 -99 248 -167 333 -83
103 -118 162 -131 221 -15 71 0 131 32 131 25 0 87 -57 87 -80 0 -8 18 -32 40
-54 22 -21 40 -47 40 -56 0 -10 6 -20 13 -23 16 -6 57 -84 57 -108 0 -12 10
-23 25 -29 18 -7 25 -17 25 -35 0 -14 4 -33 9 -43 30 -58 61 -147 61 -174 0
-8 9 -23 20 -33 11 -10 20 -24 20 -30 0 -7 7 -18 15 -25 9 -8 15 -30 15 -56 0
-24 5 -44 10 -44 6 0 10 -13 10 -30 0 -18 11 -42 30 -63 17 -19 30 -46 30 -60
0 -14 5 -29 10 -32 6 -3 10 -16 10 -28 0 -12 7 -31 15 -41 8 -11 15 -30 15
-43 0 -18 6 -23 25 -23 22 0 25 -4 25 -34 0 -18 6 -39 13 -45 8 -6 12 -23 9
-39 -2 -17 5 -45 17 -68 12 -21 21 -51 21 -67 0 -16 10 -38 25 -53 14 -14 25
-31 25 -39 0 -8 5 -17 10 -20 6 -3 10 -21 10 -40 0 -20 6 -35 15 -39 8 -3 15
-14 15 -25 0 -11 4 -22 9 -25 5 -3 12 -20 15 -38 3 -18 17 -43 30 -55 13 -13
31 -38 39 -56 9 -18 32 -49 51 -69 20 -21 36 -46 36 -58 0 -11 5 -20 10 -20 6
0 10 -8 10 -19 0 -10 7 -24 15 -31 9 -8 15 -26 13 -45 -3 -41 38 -129 66 -141
13 -6 22 -20 24 -39 4 -36 28 -65 54 -65 10 0 18 -7 18 -15 0 -8 -4 -15 -10
-15 -20 0 -9 -19 13 -22 16 -2 23 -11 25 -33 2 -16 9 -37 15 -45 22 -28 37
-60 37 -79 0 -10 7 -24 15 -31 8 -7 15 -24 15 -39 0 -15 4 -31 9 -36 6 -6 11
-37 13 -70 3 -54 5 -60 26 -63 28 -4 100 -79 108 -112 3 -14 9 -32 14 -41 14
-26 15 -256 2 -272 -17 -20 -5 -27 45 -27 40 0 55 -11 33 -25 -5 -3 -10 -44
-10 -90 0 -46 5 -87 10 -90 6 -3 10 -44 10 -89 0 -62 4 -87 15 -96 8 -7 15
-21 15 -31 0 -11 5 -19 10 -19 6 0 10 -23 10 -50 0 -36 4 -52 15 -56 8 -4 15
-18 15 -34 0 -15 7 -33 15 -40 8 -7 15 -28 15 -47 0 -23 9 -46 26 -66 15 -18
23 -38 21 -49 -3 -11 2 -22 12 -28 12 -6 16 -18 13 -38 -2 -18 2 -33 12 -41 9
-8 16 -22 16 -33 0 -10 7 -21 15 -24 8 -4 15 -12 15 -19 0 -7 18 -33 40 -58
22 -25 40 -49 40 -54 0 -8 61 -73 146 -155 27 -26 55 -55 63 -63 7 -10 20 -14
30 -10 9 4 41 11 71 17 30 5 69 14 85 20 17 6 45 13 63 15 18 3 35 9 38 14 3
5 17 9 32 9 15 1 38 7 52 15 14 8 37 14 52 15 15 0 29 4 32 9 3 5 18 11 33 14
29 5 76 21 128 43 80 34 104 44 160 69 33 15 76 33 95 42 64 28 294 144 360
181 122 69 380 241 387 258 2 6 12 15 21 18 33 11 98 63 89 72 -2 2 -15 -5
-28 -16 -53 -44 -83 -60 -110 -60 -11 0 -29 -5 -40 -11 -30 -15 -108 -27 -384
-54 -137 -14 -263 -30 -280 -36 -57 -21 -95 -44 -95 -57 0 -33 -125 -221 -147
-222 -7 0 -13 3 -13 8 0 4 -18 26 -40 50 -22 24 -40 49 -40 57 0 7 -9 16 -20
20 -11 3 -29 20 -41 37 -12 16 -32 41 -45 55 -13 14 -24 30 -24 36 0 6 -13 39
-30 74 -16 34 -30 71 -30 82 0 10 -7 25 -16 32 -13 11 -15 32 -12 126 2 72 8
117 16 125 6 6 12 25 12 40 0 16 11 55 24 88 13 32 27 74 31 92 4 18 11 35 15
38 4 3 26 40 49 83 51 96 169 277 186 283 7 3 20 20 30 38 19 34 64 66 96 66
10 0 19 -4 19 -10 0 -5 18 -10 39 -10 25 0 41 -5 45 -15 3 -8 13 -15 23 -15
10 0 27 -7 37 -15 11 -8 31 -15 45 -15 14 0 35 -7 45 -15 11 -8 30 -15 42 -15
12 0 33 -9 48 -21 34 -27 117 -42 236 -42 116 -1 156 10 213 57 24 20 48 36
54 36 18 0 73 91 84 138 5 26 8 62 4 79 -12 64 26 102 102 103 53 0 93 20 93
46 0 6 7 25 15 40 19 36 10 103 -16 122 -25 17 -24 49 1 57 11 3 20 12 20 19
0 8 7 19 15 26 9 7 15 29 15 50 0 30 -7 46 -31 69 -17 17 -34 31 -38 31 -4 0
-21 11 -37 25 l-29 25 49 45 c33 30 58 45 77 45 37 0 105 67 112 111 9 56 -33
127 -139 233 -52 52 -94 97 -94 101 0 4 -14 26 -30 49 -47 65 -37 75 67 68 66
-4 87 -2 94 9 16 26 10 39 -18 38 -16 -1 -48 10 -73 24 -25 15 -54 27 -66 27
-47 0 -72 80 -39 124 8 11 15 35 15 54 0 18 5 43 11 54 7 12 11 47 11 77 0 31
6 69 14 85 19 38 19 216 0 270 -10 29 -12 73 -9 158 3 65 2 126 -1 135 -6 14
-8 14 -25 -1 -23 -21 -33 -10 -25 28 4 27 1 35 -25 54 -46 34 -40 53 31 91
107 60 147 117 148 214 0 54 -4 74 -20 94 -27 34 -26 42 15 88 19 22 35 50 35
62 0 12 5 25 10 28 13 8 13 102 1 110 -5 3 -12 18 -16 34 -3 16 -23 46 -44 68
-33 33 -40 49 -51 112 -12 64 -19 78 -55 115 -25 26 -54 45 -74 49 -26 6 -32
10 -26 24 34 86 -23 213 -121 269 -15 9 -20 26 -24 75 -7 78 -14 93 -85 157
-38 35 -67 53 -93 57 -20 4 -47 11 -59 17 -18 9 -38 6 -94 -10 -78 -24 -109
-18 -109 19 0 29 -47 106 -78 127 -15 10 -47 24 -71 31 -27 8 -61 29 -85 52
-62 61 -138 101 -189 99 -70 -3 -76 -1 -83 24 -6 27 -85 106 -106 106 -7 1
-31 9 -53 20 -22 11 -44 19 -50 19 -5 0 -28 -8 -50 -19 -22 -11 -45 -19 -51
-20 -6 0 -30 -16 -53 -37 -45 -38 -61 -35 -61 15 0 12 -4 22 -9 22 -5 0 -19
15 -31 34 -11 19 -43 49 -71 65 -41 26 -59 31 -112 31 -56 -1 -67 -4 -116 -40z
m-1061 -505 c0 -8 -4 -15 -10 -15 -5 0 -7 7 -4 15 4 8 8 15 10 15 2 0 4 -7 4
-15z m-210 -650 c0 -14 -4 -25 -10 -25 -11 0 -14 33 -3 43 11 11 13 8 13 -18z
m-29 -175 c-8 -23 -18 63 -12 107 5 34 6 31 11 -27 4 -36 4 -72 1 -80z m-1
-56 c0 -8 -5 -12 -10 -9 -6 4 -8 11 -5 16 9 14 15 11 15 -7z m48 -75 c-2 -6
-11 -4 -22 4 -13 10 -17 20 -12 32 6 17 8 17 22 -4 9 -12 14 -26 12 -32z m12
-53 c0 -11 -19 -15 -25 -6 -3 5 1 10 9 10 9 0 16 -2 16 -4z m88 -155 c2 -38
-4 -72 -19 -113 -28 -77 -19 -114 36 -145 36 -21 53 -23 160 -23 66 1 128 1
137 1 10 -1 27 -18 38 -38 12 -21 37 -63 56 -93 41 -65 43 -92 8 -119 -46 -36
-87 -28 -167 34 l-70 55 -77 0 c-84 0 -116 15 -144 68 -17 32 -103 123 -163
172 -39 31 -57 70 -34 70 5 0 35 20 68 44 62 45 99 101 82 122 -12 15 11 23
56 21 29 -2 30 -4 33 -56z m-118 39 c-20 -13 -120 -13 -120 0 0 6 29 10 68 10
47 0 63 -3 52 -10z m-323 -67 c-3 -10 -5 -4 -5 12 0 17 2 24 5 18 2 -7 2 -21
0 -30z m100 9 c-10 -10 -17 -25 -18 -33 0 -10 -2 -10 -6 -1 -2 6 -12 12 -21
12 -24 0 17 39 42 39 18 1 18 0 3 -17z m-154 -69 c-13 -2 -33 -2 -45 0 -13 2
-3 4 22 4 25 0 35 -2 23 -4z m184 1 c-3 -3 -12 -4 -19 -1 -8 3 -5 6 6 6 11 1
17 -2 13 -5z m-100 -66 c-3 -8 -6 -5 -6 6 -1 11 2 17 5 13 3 -3 4 -12 1 -19z
m-90 -14 c-3 -3 -12 -4 -19 -1 -8 3 -5 6 6 6 11 1 17 -2 13 -5z m-130 -30 c-3
-3 -12 -4 -19 -1 -8 3 -5 6 6 6 11 1 17 -2 13 -5z m-37 -24 c0 -5 -9 -14 -20
-20 -22 -12 -27 -1 -8 18 14 14 28 16 28 2z m260 0 c0 -5 -4 -10 -10 -10 -5 0
-10 5 -10 10 0 6 5 10 10 10 6 0 10 -4 10 -10z m-306 -78 c-21 -5 -28 4 -20
24 6 16 8 15 21 -2 12 -16 12 -19 -1 -22z m-254 -1 c0 -12 -20 -25 -27 -18 -7
7 6 27 18 27 5 0 9 -4 9 -9z m112 -23 c-6 -6 -29 -6 -58 -2 l-49 8 40 6 c49 7
80 1 67 -12z m82 -29 c-5 -9 -44 1 -44 11 0 13 34 17 42 6 4 -6 5 -13 2 -17z
m-270 -10 c-17 -19 -70 -27 -59 -9 3 6 14 10 25 10 10 0 21 7 24 16 3 8 11 12
17 9 7 -5 4 -13 -7 -26z m864 -43 c40 -41 72 -79 72 -86 0 -7 -15 -27 -32 -45
-18 -17 -48 -48 -66 -68 -40 -44 -74 -55 -109 -36 -50 27 -53 81 -9 174 13 28
32 69 41 93 10 23 21 42 25 42 4 0 39 -33 78 -74z m-938 -16 c0 -5 -4 -10 -10
-10 -5 0 -10 5 -10 10 0 6 5 10 10 10 6 0 10 -4 10 -10z m-30 -29 c0 -11 -31
-24 -39 -16 -3 3 1 10 9 15 19 12 30 12 30 1z m-20 -52 c0 -5 -7 -9 -15 -9
-15 0 -20 12 -9 23 8 8 24 -1 24 -14z m-51 -16 c-7 -10 -15 -20 -16 -22 -2 -2
-3 5 -3 17 0 14 6 22 16 22 14 0 15 -3 3 -17z m-46 -40 c-7 -2 -13 -12 -13
-20 0 -9 -3 -14 -6 -10 -10 10 4 37 18 36 10 0 10 -2 1 -6z m-35 -60 c-2 -9
-8 -18 -15 -20 -7 -3 -9 3 -6 16 6 25 26 28 21 4z m-28 -40 c-1 -5 -14 -19
-30 -33 -17 -13 -30 -32 -30 -42 0 -10 -7 -18 -15 -18 -19 0 -19 0 1 38 20 40
75 81 74 55z m1555 -53 c3 -5 1 -10 -4 -10 -6 0 -11 5 -11 10 0 6 2 10 4 10 3
0 8 -4 11 -10z m415 -90 c0 -5 -7 -10 -15 -10 -8 0 -15 5 -15 10 0 6 7 10 15
10 8 0 15 -4 15 -10z m-830 -118 c30 -14 72 -36 92 -49 21 -13 44 -23 52 -23
8 0 38 -12 67 -26 42 -21 56 -24 70 -16 10 7 36 14 57 18 35 5 41 3 60 -23 11
-16 24 -41 27 -56 4 -15 11 -30 16 -33 30 -18 -8 -138 -65 -201 -24 -27 -48
-57 -54 -68 -9 -17 -21 -20 -89 -20 -66 0 -83 -4 -111 -23 -33 -24 -62 -24
-62 0 0 7 -6 25 -14 40 -8 15 -17 40 -21 57 -4 17 -11 33 -16 36 -5 4 -9 16
-9 29 0 12 -7 31 -15 42 -20 27 -19 31 16 50 27 14 30 18 17 30 -8 8 -29 23
-48 32 -24 13 -42 37 -67 88 -19 38 -41 82 -49 97 -25 51 -20 58 39 51 28 -4
77 -18 107 -32z m893 -64 c9 -11 17 -33 17 -49 0 -17 13 -53 29 -81 25 -44 28
-55 19 -82 -15 -45 -65 -93 -125 -121 -44 -21 -54 -31 -64 -63 -6 -21 -19 -49
-29 -62 -15 -20 -21 -22 -34 -11 -8 7 -18 28 -22 47 -3 19 -10 37 -15 40 -5 3
-9 20 -9 38 0 19 -7 39 -15 46 -8 7 -15 22 -15 34 0 11 -7 30 -15 40 -8 11
-15 41 -15 67 l0 47 83 64 c45 36 91 69 101 75 25 14 86 -2 109 -29z m-330
-441 c9 -23 17 -52 17 -63 0 -12 7 -27 15 -34 8 -7 15 -18 15 -25 0 -7 -7 -18
-15 -25 -21 -17 -19 -30 4 -30 23 0 61 -57 61 -92 0 -13 5 -29 11 -35 6 -6 9
-21 7 -34 -2 -20 -8 -24 -35 -21 -20 2 -53 -8 -93 -27 -34 -17 -71 -31 -82
-31 -10 0 -43 -10 -71 -23 -29 -13 -68 -29 -87 -35 -45 -16 -41 -21 -116 131
-8 16 -14 36 -14 45 0 17 62 88 110 127 123 101 160 133 193 171 21 24 44 44
50 44 7 0 20 -19 30 -43z m495 -188 c3 -81 1 -87 -21 -102 -13 -8 -61 -20
-108 -27 -142 -20 -132 -22 -141 35 -4 27 -12 51 -18 53 -14 5 -13 72 3 76 6
2 28 8 47 15 19 6 63 14 98 18 34 3 65 10 68 15 3 5 20 8 37 6 l32 -3 3 -86z
m142 21 c0 -22 7 -43 16 -51 13 -11 15 -27 12 -84 -3 -38 -3 -62 -1 -52 7 26
23 20 23 -9 0 -18 -4 -25 -14 -21 -11 4 -15 -11 -18 -76 -3 -45 -1 -87 4 -94
5 -6 5 -14 -1 -17 -5 -3 -7 -14 -4 -24 2 -10 -2 -24 -10 -30 -12 -10 -14 18
-16 200 -1 116 -5 216 -9 222 -11 17 -29 95 -24 101 14 13 42 -31 42 -65z
m160 -96 c0 -8 -5 -12 -10 -9 -6 4 -8 11 -5 16 9 14 15 11 15 -7z m-680 -179
c0 -17 -27 -32 -37 -21 -4 3 2 13 13 21 24 18 24 18 24 0z m620 -80 c1 -5 2
-19 1 -30 -1 -12 -11 2 -28 37 -22 49 -24 60 -13 74 12 13 15 10 25 -28 7 -24
13 -47 15 -53z m-670 35 c0 -5 -4 -10 -10 -10 -5 0 -10 5 -10 10 0 6 5 10 10
10 6 0 10 -4 10 -10z m260 -60 c0 -11 -4 -20 -10 -20 -5 0 -10 9 -10 20 0 11
5 20 10 20 6 0 10 -9 10 -20z m440 -86 c0 -34 -4 -53 -10 -49 -5 3 -10 28 -10
56 0 27 5 49 10 49 6 0 10 -25 10 -56z m-249 36 c16 -9 19 -22 19 -80 0 -39
-2 -70 -4 -70 -2 0 -25 12 -51 27 -35 19 -61 26 -96 25 -41 -1 -49 2 -49 17 0
24 37 70 64 81 30 12 94 12 117 0z m-514 -92 c-3 -8 -6 -5 -6 6 -1 11 2 17 5
13 3 -3 4 -12 1 -19z m660 -10 c-3 -8 -6 -5 -6 6 -1 11 2 17 5 13 3 -3 4 -12
1 -19z m-723 -17 c28 -31 35 -191 8 -191 -9 0 -62 87 -62 102 0 7 -11 24 -25
38 -23 24 -24 27 -9 48 19 28 65 29 88 3z m856 -31 l0 -50 -20 20 c-11 11 -20
33 -20 50 0 23 4 30 20 30 17 0 20 -7 20 -50z m-125 -16 c-4 -26 -2 -36 10
-40 22 -9 19 -24 -5 -24 -18 0 -20 7 -20 56 0 37 4 53 11 48 6 -4 8 -20 4 -40z
m65 -24 c0 -5 -4 -10 -10 -10 -5 0 -10 5 -10 10 0 6 5 10 10 10 6 0 10 -4 10
-10z m-521 -37 c0 -29 -2 -33 -8 -18 -7 18 -4 55 5 55 2 0 4 -17 3 -37z m573
-10 c33 -30 22 -63 -39 -125 -32 -32 -61 -58 -65 -58 -12 0 -10 48 3 55 6 4 9
27 8 51 -3 46 3 58 43 79 31 17 29 17 50 -2z m-737 -177 c46 -51 65 -73 65
-79 0 -3 18 -32 40 -65 22 -33 40 -66 40 -74 0 -7 14 -28 30 -46 23 -26 35
-32 53 -27 36 11 41 11 44 -5 4 -17 -77 -80 -103 -80 -8 0 -17 8 -21 18 -15
47 -38 92 -45 92 -4 0 -8 5 -8 12 0 6 -11 26 -25 44 -14 18 -25 39 -25 47 0 8
-7 20 -15 27 -8 7 -15 19 -15 28 0 8 -18 41 -40 73 -22 32 -40 63 -40 69 0 22
27 8 65 -34z m65 34 c0 -5 -2 -10 -4 -10 -3 0 -8 5 -11 10 -3 6 -1 10 4 10 6
0 11 -4 11 -10z m706 -39 c-2 -65 -12 -73 -26 -21 -12 46 -8 70 13 70 10 0 14
-14 13 -49z m-666 -11 c22 -22 26 -40 10 -40 -5 0 -10 7 -10 15 0 8 -7 15 -15
15 -8 0 -15 7 -15 15 0 20 6 19 30 -5z m557 -42 c-3 -8 -6 -5 -6 6 -1 11 2 17
5 13 3 -3 4 -12 1 -19z m-35 -20 c-15 -19 -12 -138 3 -138 7 0 15 9 18 20 5
21 33 37 44 26 9 -8 -58 -75 -75 -76 -7 0 -17 -11 -22 -25 -5 -14 -12 -25 -15
-25 -11 0 -4 39 10 54 11 10 15 37 15 95 0 68 3 81 16 81 12 0 14 -3 6 -12z
m129 -57 c-22 -22 -51 -28 -51 -12 0 5 9 13 21 16 13 5 18 12 14 23 -9 23 18
36 29 13 6 -14 2 -25 -13 -40z m-571 29 c0 -11 -6 -20 -13 -20 -7 0 -18 9 -25
20 -11 18 -10 20 13 20 18 0 25 -5 25 -20z m482 -12 c-9 -9 -12 -7 -12 12 0
19 3 21 12 12 9 -9 9 -15 0 -24z m-475 -40 c-3 -8 -6 -5 -6 6 -1 11 2 17 5 13
3 -3 4 -12 1 -19z m53 -61 c0 -19 -1 -20 -20 -2 -11 10 -20 27 -20 38 0 19 1
20 20 2 11 -10 20 -27 20 -38z m210 -47 c0 -14 -6 -20 -17 -18 -28 5 -30 -55
-3 -82 26 -26 22 -33 -14 -24 -25 6 -26 10 -26 69 0 67 -2 64 53 74 4 0 7 -8
7 -19z m286 -67 c-5 -12 -9 -13 -20 -4 -14 12 -46 5 -57 -12 -4 -6 -15 -7 -25
-2 -18 7 -18 8 2 15 12 5 25 13 29 19 3 6 17 11 30 11 13 0 27 6 32 13 10 16
17 -17 9 -40z m-144 -48 c-2 -14 -8 -25 -13 -25 -10 0 -12 43 -3 53 13 12 21
-3 16 -28z m109 -13 c-6 -2 -11 -11 -11 -21 0 -20 -34 -51 -55 -51 -9 0 -18
-7 -21 -15 -4 -8 -15 -15 -25 -15 -15 0 -19 7 -19 34 0 19 5 38 10 41 6 3 10
-3 10 -15 0 -19 4 -21 33 -15 40 9 50 18 45 41 -2 10 6 27 17 39 20 20 20 20
23 0 2 -10 -1 -21 -7 -23z m-439 -22 c-2 -16 -8 -27 -13 -24 -11 6 -12 35 -3
59 10 25 21 0 16 -35z m-42 -10 c0 -5 -2 -10 -4 -10 -3 0 -8 5 -11 10 -3 6 -1
10 4 10 6 0 11 -4 11 -10z m208 -20 c22 -18 22 -20 7 -44 -9 -14 -14 -30 -10
-36 9 -15 -4 -30 -21 -23 -11 4 -12 9 -5 16 14 14 14 74 1 82 -12 7 -13 25 -2
25 4 -1 17 -9 30 -20z m-158 -40 c17 0 20 -7 20 -55 0 -50 -2 -55 -17 -46 -13
7 -17 20 -14 50 2 32 -1 41 -13 41 -10 0 -16 9 -16 23 1 20 2 20 11 5 5 -10
19 -18 29 -18z m1210 -90 c0 -5 -2 -10 -4 -10 -3 0 -8 5 -11 10 -3 6 -1 10 4
10 6 0 11 -4 11 -10z m90 6 c0 -9 -32 -36 -41 -36 -6 0 -5 8 1 20 9 17 40 29
40 16z m147 -2 c-3 -3 -12 -4 -19 -1 -8 3 -5 6 6 6 11 1 17 -2 13 -5z m-482
-201 c-11 -71 -16 -84 -25 -78 -18 11 -12 93 8 104 9 6 18 11 20 11 2 0 0 -17
-3 -37z m-35 -122 c0 -6 -4 -13 -10 -16 -5 -3 -10 1 -10 9 0 9 5 16 10 16 6 0
10 -4 10 -9z m-30 -46 c0 -8 -4 -15 -10 -15 -5 0 -10 7 -10 15 0 8 5 15 10 15
6 0 10 -7 10 -15z m-30 -37 c0 -16 -3 -19 -11 -11 -6 6 -8 16 -5 22 11 17 16
13 16 -11z m-27 -103 c-7 -21 -13 -19 -13 6 0 11 4 18 10 14 5 -3 7 -12 3 -20z
m-53 -45 c0 -5 -4 -10 -10 -10 -5 0 -10 5 -10 10 0 6 5 10 10 10 6 0 10 -4 10
-10z m-51 -41 c-9 -17 -13 -19 -20 -8 -14 22 -11 29 11 29 18 0 19 -3 9 -21z
m-62 -121 c-3 -7 -5 -2 -5 12 0 14 2 19 5 13 2 -7 2 -19 0 -25z m-80 -205 c-3
-10 -5 -4 -5 12 0 17 2 24 5 18 2 -7 2 -21 0 -30z m-50 -280 c-3 -10 -5 -2 -5
17 0 19 2 27 5 18 2 -10 2 -26 0 -35z m-17 -248 c0 -8 -4 -17 -10 -20 -6 -4
-10 5 -10 20 0 15 4 24 10 20 6 -3 10 -12 10 -20z m17 -207 c-3 -8 -6 -5 -6 6
-1 11 2 17 5 13 3 -3 4 -12 1 -19z m133 -128 c0 -5 -5 -10 -11 -10 -5 0 -7 5
-4 10 3 6 8 10 11 10 2 0 4 -4 4 -10z"/>
<path d="M4665 12270 c-3 -5 -1 -10 4 -10 6 0 11 5 11 10 0 6 -2 10 -4 10 -3
0 -8 -4 -11 -10z"/>
<path d="M4616 12205 c-9 -26 -7 -32 5 -12 6 10 9 21 6 23 -2 3 -7 -2 -11 -11z"/>
<path d="M4350 11805 c0 -8 2 -15 4 -15 2 0 6 7 10 15 3 8 1 15 -4 15 -6 0
-10 -7 -10 -15z"/>
<path d="M4301 11704 c0 -11 3 -14 6 -6 3 7 2 16 -1 19 -3 4 -6 -2 -5 -13z"/>
<path d="M4270 11648 c0 -19 2 -20 10 -8 13 19 13 30 0 30 -5 0 -10 -10 -10
-22z"/>
<path d="M4251 11614 c0 -11 3 -14 6 -6 3 7 2 16 -1 19 -3 4 -6 -2 -5 -13z"/>
<path d="M4561 11614 c0 -11 3 -14 6 -6 3 7 2 16 -1 19 -3 4 -6 -2 -5 -13z"/>
<path d="M4226 11054 c-9 -8 -16 -16 -16 -17 0 -1 7 -24 15 -51 8 -27 15 -78
15 -113 0 -40 4 -62 10 -58 6 3 10 19 10 35 0 16 6 41 14 57 19 38 46 124 46
146 0 23 -72 24 -94 1z"/>
<path d="M4011 11014 c0 -11 3 -14 6 -6 3 7 2 16 -1 19 -3 4 -6 -2 -5 -13z"/>
<path d="M11380 10996 c0 -14 5 -26 10 -26 6 0 10 9 10 19 0 11 -4 23 -10 26
-6 4 -10 -5 -10 -19z"/>
<path d="M11666 10983 c9 -52 14 -54 14 -5 0 23 -5 42 -10 42 -7 0 -8 -14 -4
-37z"/>
<path d="M3980 10929 c0 -11 5 -17 10 -14 6 3 10 13 10 21 0 8 -4 14 -10 14
-5 0 -10 -9 -10 -21z"/>
<path d="M11411 10911 c-1 -24 2 -32 9 -25 7 7 7 19 1 35 -9 23 -10 22 -10
-10z"/>
<path d="M11702 10885 c0 -16 2 -22 5 -12 2 9 2 23 0 30 -3 6 -5 -1 -5 -18z"/>
<path d="M3962 10840 c0 -19 2 -27 5 -17 2 9 2 25 0 35 -3 9 -5 1 -5 -18z"/>
<path d="M11434 10829 c-3 -6 -1 -16 5 -22 8 -8 11 -5 11 11 0 24 -5 28 -16
11z"/>
<path d="M11721 10774 c0 -11 3 -14 6 -6 3 7 2 16 -1 19 -3 4 -6 -2 -5 -13z"/>
<path d="M3931 10735 l1 -50 10 38 c7 28 7 42 -1 50 -8 8 -11 -2 -10 -38z"/>
<path d="M4222 10740 c0 -19 2 -27 5 -17 2 9 2 25 0 35 -3 9 -5 1 -5 -18z"/>
<path d="M11462 10735 c0 -16 2 -22 5 -12 2 9 2 23 0 30 -3 6 -5 -1 -5 -18z"/>
<path d="M11748 10692 c-2 -15 -1 -38 3 -52 5 -18 7 -10 8 28 1 56 -4 69 -11
24z"/>
<path d="M4192 10640 c0 -19 2 -27 5 -17 2 9 2 25 0 35 -3 9 -5 1 -5 -18z"/>
<path d="M3908 10647 c-5 -10 -8 -33 -8 -50 1 -27 2 -29 11 -14 6 9 9 32 7 50
-2 25 -5 28 -10 14z"/>
<path d="M11492 10640 c0 -14 2 -19 5 -12 2 6 2 18 0 25 -3 6 -5 1 -5 -13z"/>
<path d="M11771 10560 c0 -14 4 -43 8 -65 l9 -40 1 50 c0 28 -4 57 -9 65 -8
12 -10 10 -9 -10z"/>
<path d="M4160 10515 c0 -8 5 -15 10 -15 6 0 10 7 10 15 0 8 -4 15 -10 15 -5
0 -10 -7 -10 -15z"/>
<path d="M11803 10370 c0 -36 2 -50 4 -32 2 17 2 47 0 65 -2 17 -4 3 -4 -33z"/>
<path d="M4136 10378 c-5 -21 -12 -38 -16 -38 -5 0 -12 -10 -16 -22 -4 -13
-35 -65 -68 -118 -34 -52 -72 -124 -84 -160 -26 -73 -61 -137 -97 -176 -14
-15 -28 -43 -31 -63 -9 -44 23 -458 45 -591 5 -30 10 -82 10 -114 2 -106 14
-50 16 71 2 91 7 130 22 169 39 99 98 207 131 243 7 8 20 24 29 37 8 13 21 24
27 24 9 0 12 43 12 163 -1 176 8 346 25 472 6 44 9 94 7 110 l-4 30 -8 -37z"/>
<path d="M11827 10203 c-7 -6 2 -314 9 -322 2 -2 4 71 4 162 0 92 -1 167 -3
167 -2 0 -7 -3 -10 -7z"/>
<path d="M11543 10165 c0 -22 2 -30 4 -17 2 12 2 30 0 40 -3 9 -5 -1 -4 -23z"/>
<path d="M11827 9643 c-3 -137 -2 -232 4 -237 5 -6 9 79 9 227 0 130 -2 237
-3 237 -2 0 -7 -102 -10 -227z"/>
<path d="M11543 9485 c0 -27 2 -38 4 -22 2 15 2 37 0 50 -2 12 -4 0 -4 -28z"/>
<path d="M4142 9335 c0 -16 2 -22 5 -12 2 9 2 23 0 30 -3 6 -5 -1 -5 -18z"/>
<path d="M11803 9280 c0 -36 2 -50 4 -32 2 17 2 47 0 65 -2 17 -4 3 -4 -33z"/>
<path d="M4172 9180 c0 -14 2 -19 5 -12 2 6 2 18 0 25 -3 6 -5 1 -5 -13z"/>
<path d="M11778 9127 c-5 -10 -8 -37 -7 -60 0 -38 1 -40 10 -17 6 13 9 40 7
60 -2 27 -5 31 -10 17z"/>
<path d="M4192 9065 c0 -16 2 -22 5 -12 2 9 2 23 0 30 -3 6 -5 -1 -5 -18z"/>
<path d="M11491 9044 c0 -11 3 -14 6 -6 3 7 2 16 -1 19 -3 4 -6 -2 -5 -13z"/>
<path d="M3900 8977 c0 -19 7 -48 15 -63 8 -16 15 -43 15 -61 0 -17 4 -34 9
-37 5 -3 11 -23 14 -43 4 -37 21 -90 38 -125 5 -10 9 -25 9 -34 0 -9 6 -30 13
-47 8 -18 22 -59 32 -92 9 -33 23 -73 30 -90 7 -16 17 -41 23 -55 5 -14 17
-41 26 -62 9 -20 16 -42 17 -50 0 -7 9 -26 19 -43 10 -16 36 -64 58 -105 21
-41 59 -115 85 -163 26 -48 47 -93 47 -99 0 -6 10 -25 23 -42 12 -17 31 -48
42 -68 11 -21 22 -38 26 -38 4 0 9 -8 13 -17 5 -18 26 -53 36 -63 10 -10 70
-101 70 -106 0 -3 11 -17 25 -32 14 -15 25 -30 25 -35 0 -23 147 -167 171
-167 28 0 11 40 -27 62 -19 11 -34 24 -34 29 0 5 -7 9 -15 9 -8 0 -15 9 -15
19 0 10 -7 21 -15 24 -13 6 -43 46 -90 122 -11 18 -50 78 -87 134 -38 56 -68
103 -68 105 0 2 -19 32 -42 67 -42 62 -42 65 -44 156 -2 84 -5 96 -26 113 -13
11 -30 20 -38 20 -8 0 -26 11 -40 23 -24 21 -33 35 -68 117 -8 19 -19 43 -23
52 -5 10 -9 23 -9 29 0 6 -6 25 -14 42 -8 18 -22 55 -31 82 -9 28 -20 57 -25
65 -4 9 -11 31 -15 50 -4 19 -11 41 -15 50 -5 8 -16 42 -25 75 -21 74 -44 145
-55 165 -4 9 -11 30 -15 48 -3 18 -11 32 -16 32 -5 0 -9 15 -9 34 0 19 -4 38
-10 41 -6 4 -10 -8 -10 -28z"/>
<path d="M11753 8960 c0 -25 2 -35 4 -22 2 12 2 32 0 45 -2 12 -4 2 -4 -23z"/>
<path d="M4222 8945 c0 -16 2 -22 5 -12 2 9 2 23 0 30 -3 6 -5 -1 -5 -18z"/>
<path d="M11461 8934 c0 -11 3 -14 6 -6 3 7 2 16 -1 19 -3 4 -6 -2 -5 -13z"/>
<path d="M4240 8860 c0 -11 5 -20 10 -20 6 0 10 9 10 20 0 11 -4 20 -10 20 -5
0 -10 -9 -10 -20z"/>
<path d="M11442 8840 c0 -14 2 -19 5 -12 2 6 2 18 0 25 -3 6 -5 1 -5 -13z"/>
<path d="M11722 8825 c0 -16 2 -22 5 -12 2 9 2 23 0 30 -3 6 -5 -1 -5 -18z"/>
<path d="M4272 8770 c0 -19 2 -27 5 -17 2 9 2 25 0 35 -3 9 -5 1 -5 -18z"/>
<path d="M11410 8755 c0 -15 4 -24 10 -20 6 3 10 12 10 20 0 8 -4 17 -10 20
-6 4 -10 -5 -10 -20z"/>
<path d="M11701 8760 c-1 -8 -4 -26 -7 -40 -5 -19 -4 -22 5 -14 7 6 11 24 8
40 -2 16 -5 22 -6 14z"/>
<path d="M4295 8691 c-3 -5 -1 -12 5 -16 5 -3 10 1 10 9 0 18 -6 21 -15 7z"/>
<path d="M11380 8669 c0 -11 5 -17 10 -14 6 3 10 13 10 21 0 8 -4 14 -10 14
-5 0 -10 -9 -10 -21z"/>
<path d="M11668 8644 c-2 -19 0 -37 4 -40 4 -3 8 13 8 35 0 51 -6 53 -12 5z"/>
<path d="M11362 8595 c0 -16 2 -22 5 -12 2 9 2 23 0 30 -3 6 -5 -1 -5 -18z"/>
<path d="M11646 8575 c-4 -11 -14 -35 -22 -53 -8 -18 -14 -38 -14 -44 0 -6
-12 -35 -26 -65 -14 -31 -24 -66 -21 -81 4 -27 4 -27 12 6 4 17 11 32 16 32 5
0 9 11 9 24 0 14 7 31 15 40 8 8 15 23 15 34 0 11 7 36 16 57 8 20 13 44 11
53 -3 14 -5 14 -11 -3z"/>
<path d="M4326 8543 c-4 -10 -1 -20 9 -25 8 -5 15 -17 15 -28 0 -10 10 -40 22
-67 12 -26 22 -55 22 -63 1 -23 86 -190 97 -190 5 0 9 -9 9 -19 0 -22 31 -81
43 -81 4 0 7 -9 7 -19 0 -10 7 -21 15 -25 8 -3 15 -12 15 -20 0 -18 32 -76 43
-76 4 0 7 -5 7 -11 0 -6 12 -26 26 -44 14 -19 23 -39 20 -44 -4 -6 3 -15 14
-21 11 -6 20 -20 20 -30 0 -11 4 -20 10 -20 5 0 17 -14 26 -31 20 -40 103
-153 115 -157 5 -2 9 -8 9 -13 0 -13 8 -23 118 -141 50 -54 92 -104 92 -109 0
-17 184 -188 445 -413 25 -21 48 -37 50 -34 11 11 -8 34 -53 68 -26 19 -74 63
-108 97 -33 35 -65 63 -70 63 -5 0 -29 18 -53 40 -23 22 -45 40 -47 40 -10 0
-125 126 -151 164 -15 23 -53 68 -84 101 -92 98 -138 150 -139 156 0 3 -11 19
-25 35 -14 16 -28 37 -31 47 -3 9 -9 17 -14 17 -5 0 -12 10 -16 22 -3 12 -17
33 -30 47 -13 14 -24 32 -24 39 0 7 -6 20 -12 27 -26 29 -34 41 -51 78 -10 20
-22 37 -27 37 -6 0 -10 8 -10 19 0 10 -7 24 -15 31 -8 7 -15 19 -15 26 0 8 -4
14 -10 14 -5 0 -10 7 -10 15 0 9 -7 18 -15 21 -8 4 -15 17 -15 30 0 15 -6 24
-15 24 -9 0 -15 9 -15 24 0 13 -3 26 -7 28 -11 4 -43 67 -43 83 0 7 -7 18 -15
25 -8 7 -15 22 -15 35 0 12 -3 25 -7 29 -11 11 -43 99 -43 119 0 10 -7 20 -15
23 -9 4 -15 19 -15 40 0 37 -23 48 -34 17z"/>
<path d="M11330 8535 c0 -15 4 -24 10 -20 6 3 10 12 10 20 0 8 -4 17 -10 20
-6 4 -10 -5 -10 -20z"/>
<path d="M11300 8465 c0 -14 5 -25 10 -25 6 0 10 11 10 25 0 14 -4 25 -10 25
-5 0 -10 -11 -10 -25z"/>
<path d="M11277 8410 c-3 -11 -1 -23 4 -26 5 -3 9 6 9 20 0 31 -6 34 -13 6z"/>
<path d="M10590 8400 c0 -5 9 -10 21 -10 11 0 17 5 14 10 -3 6 -13 10 -21 10
-8 0 -14 -4 -14 -10z"/>
<path d="M11251 8340 c0 -33 1 -34 11 -12 8 17 8 26 0 34 -9 9 -12 4 -11 -22z"/>
<path d="M11535 8289 c-4 -12 -2 -26 4 -32 8 -8 11 -2 11 21 0 37 -6 41 -15
11z"/>
<path d="M11225 8290 c3 -5 8 -10 11 -10 2 0 4 5 4 10 0 6 -5 10 -11 10 -5 0
-7 -4 -4 -10z"/>
<path d="M11510 8226 c0 -14 -4 -28 -10 -31 -5 -3 -10 -11 -10 -17 0 -6 9 -1
20 12 21 24 27 60 10 60 -5 0 -10 -11 -10 -24z"/>
<path d="M11477 8142 c-9 -10 -16 -29 -16 -43 1 -20 2 -21 6 -4 3 11 12 25 20
32 8 6 13 17 11 23 -2 7 -10 4 -21 -8z"/>
<path d="M11431 8043 c0 -25 1 -26 9 -8 12 27 12 35 0 35 -5 0 -10 -12 -9 -27z"/>
<path d="M11411 7984 c0 -11 3 -14 6 -6 3 7 2 16 -1 19 -3 4 -6 -2 -5 -13z"/>
<path d="M11376 7935 c-3 -8 -1 -15 4 -15 6 0 10 7 10 15 0 8 -2 15 -4 15 -2
0 -6 -7 -10 -15z"/>
<path d="M11040 7924 c0 -8 5 -12 10 -9 6 4 8 11 5 16 -9 14 -15 11 -15 -7z"/>
<path d="M11330 7861 c0 -11 -6 -26 -14 -33 -7 -8 -17 -24 -20 -36 -4 -12 -12
-22 -17 -22 -5 0 -9 -9 -9 -20 0 -11 5 -20 10 -20 6 0 10 7 10 15 0 8 4 15 8
15 8 0 31 50 42 93 4 15 4 27 -1 27 -5 0 -9 -9 -9 -19z"/>
<path d="M10990 7839 c0 -5 5 -7 10 -4 6 3 10 8 10 11 0 2 -4 4 -10 4 -5 0
-10 -5 -10 -11z"/>
<path d="M10960 7798 c0 -19 2 -20 10 -8 13 19 13 30 0 30 -5 0 -10 -10 -10
-22z"/>
<path d="M10929 7762 c-21 -24 -31 -52 -19 -52 6 0 10 4 10 9 0 5 7 17 16 25
8 9 14 21 12 26 -2 6 -10 2 -19 -8z"/>
<path d="M11223 7686 c-22 -31 -59 -61 -126 -100 -99 -59 -123 -88 -108 -128
4 -13 12 -45 16 -73 6 -42 8 -47 18 -30 6 11 15 24 20 30 21 24 143 204 157
231 8 16 20 34 26 39 22 19 45 63 36 69 -5 3 -23 -14 -39 -38z"/>
<path d="M4810 7241 c0 -14 121 -122 133 -118 16 5 21 27 5 27 -7 0 -24 16
-38 35 -14 19 -33 37 -42 40 -10 4 -18 11 -18 16 0 5 -9 9 -20 9 -11 0 -20 -4
-20 -9z"/>
<path d="M4825 7160 c3 -5 8 -10 11 -10 2 0 4 5 4 10 0 6 -5 10 -11 10 -5 0
-7 -4 -4 -10z"/>
<path d="M4980 7110 c0 -5 5 -10 11 -10 5 0 7 5 4 10 -3 6 -8 10 -11 10 -2 0
-4 -4 -4 -10z"/>
<path d="M4881 7094 c0 -11 3 -14 6 -6 3 7 2 16 -1 19 -3 4 -6 -2 -5 -13z"/>
<path d="M5011 7073 c21 -27 87 -98 154 -168 64 -65 104 -95 130 -95 8 0 15
-6 15 -14 0 -7 16 -21 35 -30 19 -9 37 -21 40 -26 7 -11 64 -40 80 -40 7 0 15
-7 19 -15 3 -8 15 -15 26 -15 11 0 20 7 20 15 0 9 -9 15 -24 15 -13 0 -26 7
-30 15 -3 8 -15 15 -26 15 -11 0 -20 4 -20 10 0 5 -17 17 -37 26 -21 10 -42
24 -46 31 -4 7 -14 13 -22 13 -7 0 -15 3 -17 8 -1 4 -16 18 -33 30 -16 13 -76
68 -131 123 -56 54 -107 99 -113 99 -6 0 -11 5 -11 10 0 6 -5 10 -11 10 -8 0
-7 -6 2 -17z"/>
<path d="M4910 7066 c0 -2 25 -29 55 -61 30 -31 55 -51 55 -43 0 16 -54 78
-68 78 -6 0 -12 7 -16 15 -5 13 -26 22 -26 11z"/>
<path d="M5048 6923 c7 -3 16 -2 19 1 4 3 -2 6 -13 5 -11 0 -14 -3 -6 -6z"/>
<path d="M5590 6851 c0 -6 8 -15 18 -18 9 -4 29 -18 43 -33 14 -14 31 -24 37
-22 6 2 24 -8 39 -22 15 -15 36 -29 46 -32 9 -3 17 -10 17 -15 0 -5 7 -9 15
-9 8 0 15 3 15 8 0 10 -38 42 -50 42 -6 0 -10 3 -10 8 0 4 -17 16 -37 27 -21
11 -47 30 -58 42 -24 25 -75 41 -75 24z"/>
<path d="M5190 6806 c0 -14 68 -77 74 -68 3 5 -5 17 -17 27 -12 10 -30 25 -39
33 -10 8 -18 12 -18 8z"/>
<path d="M9948 6763 c7 -3 16 -2 19 1 4 3 -2 6 -13 5 -11 0 -14 -3 -6 -6z"/>
<path d="M9905 6740 c-3 -5 1 -10 9 -10 9 0 16 5 16 10 0 6 -4 10 -9 10 -6 0
-13 -4 -16 -10z"/>
<path d="M5270 6725 c0 -3 9 -14 21 -26 27 -27 45 -20 19 9 -19 20 -40 29 -40
17z"/>
<path d="M9860 6710 c0 -5 7 -10 15 -10 8 0 15 5 15 10 0 6 -7 10 -15 10 -8 0
-15 -4 -15 -10z"/>
<path d="M5835 6689 c-4 -6 2 -13 14 -16 12 -3 21 -9 21 -13 0 -9 56 -40 72
-40 4 0 8 5 8 10 0 6 -7 10 -15 10 -9 0 -18 7 -21 15 -4 8 -14 15 -24 15 -10
0 -20 7 -24 15 -6 17 -22 20 -31 4z"/>
<path d="M10350 6690 c0 -5 5 -10 10 -10 6 0 10 5 10 10 0 6 -4 10 -10 10 -5
0 -10 -4 -10 -10z"/>
<path d="M9820 6681 c0 -17 18 -21 24 -6 3 9 0 15 -9 15 -8 0 -15 -4 -15 -9z"/>
<path d="M5545 6671 c-8 -13 19 -25 39 -18 9 4 16 -2 19 -15 4 -15 11 -19 26
-15 12 3 22 -1 25 -9 3 -8 14 -14 24 -14 11 0 25 -7 32 -15 7 -8 23 -15 37
-15 13 0 34 -7 47 -15 15 -10 34 -13 56 -9 l32 7 -38 18 c-20 11 -48 19 -60
19 -13 0 -25 4 -28 9 -3 4 -27 14 -53 21 -27 7 -57 21 -68 30 -25 22 -81 35
-90 21z"/>
<path d="M5345 6660 c4 -6 11 -8 16 -5 14 9 11 15 -7 15 -8 0 -12 -5 -9 -10z"/>
<path d="M5375 6640 c-3 -5 1 -10 10 -10 9 0 13 5 10 10 -3 6 -8 10 -10 10 -2
0 -7 -4 -10 -10z"/>
<path d="M9750 6629 c0 -5 5 -7 10 -4 6 3 10 8 10 11 0 2 -4 4 -10 4 -5 0 -10
-5 -10 -11z"/>
<path d="M5465 6578 c11 -7 26 -18 33 -25 22 -22 52 -35 52 -23 0 5 -5 10 -11
10 -7 0 -22 11 -35 25 -13 14 -31 25 -41 25 -16 -1 -16 -2 2 -12z"/>
<path d="M5578 6500 c12 -5 22 -14 22 -20 0 -5 9 -10 20 -10 11 0 20 -6 20
-12 0 -7 18 -22 40 -32 22 -11 40 -23 40 -28 0 -4 7 -8 15 -8 8 0 15 -4 15 -9
0 -5 11 -12 25 -15 14 -4 25 -11 25 -16 0 -6 8 -10 19 -10 10 0 24 -7 31 -15
12 -15 40 -21 40 -9 0 10 -33 33 -47 34 -14 0 -106 61 -111 73 -2 4 -10 7 -17
7 -8 0 -20 6 -27 13 -20 18 -50 37 -70 43 -10 4 -18 10 -18 15 0 5 -10 9 -22
8 l-23 0 23 -9z"/>
<path d="M9258 6393 c6 -2 18 -2 25 0 6 3 1 5 -13 5 -14 0 -19 -2 -12 -5z"/>
<path d="M9190 6370 c0 -5 9 -10 20 -10 11 0 20 5 20 10 0 6 -9 10 -20 10 -11
0 -20 -4 -20 -10z"/>
<path d="M5908 6293 c7 -3 16 -2 19 1 4 3 -2 6 -13 5 -11 0 -14 -3 -6 -6z"/>
<path d="M5945 6270 c3 -5 11 -10 16 -10 6 0 7 5 4 10 -3 6 -11 10 -16 10 -6
0 -7 -4 -4 -10z"/>
<path d="M6015 6240 c27 -12 35 -12 35 0 0 6 -12 10 -27 9 -25 0 -26 -1 -8 -9z"/>
<path d="M6105 6190 c11 -5 27 -9 35 -9 9 0 8 4 -5 9 -11 5 -27 9 -35 9 -9 0
-8 -4 5 -9z"/>
<path d="M6173 6163 c9 -2 23 -2 30 0 6 3 -1 5 -18 5 -16 0 -22 -2 -12 -5z"/>
<path d="M6220 6139 c0 -5 11 -9 25 -9 14 0 25 2 25 4 0 2 -11 6 -25 8 -14 3
-25 1 -25 -3z"/>
<path d="M5342 5294 c-96 -26 -159 -70 -195 -138 -18 -33 -22 -58 -22 -128 0
-80 2 -89 30 -129 45 -64 96 -95 241 -145 149 -52 184 -78 184 -134 0 -104
-166 -120 -208 -20 l-17 40 -117 0 -118 0 0 -34 c0 -52 49 -136 104 -178 72
-54 142 -73 261 -73 88 1 107 4 160 28 33 16 75 42 94 60 101 96 109 268 16
360 -43 42 -80 61 -218 112 -70 26 -138 58 -152 71 -32 30 -33 74 -1 111 20
23 32 28 68 27 54 -1 97 -28 105 -66 l6 -28 123 0 c139 0 133 -4 108 79 -45
153 -254 239 -452 185z"/>
<path d="M6301 5299 c-186 -36 -345 -206 -371 -396 -53 -386 332 -670 685
-505 167 79 265 238 265 432 0 194 -90 345 -255 426 -104 51 -211 65 -324 43z
m193 -211 c150 -45 208 -285 105 -434 -62 -91 -200 -121 -308 -68 -96 48 -137
135 -129 273 9 151 94 238 237 240 29 1 72 -5 95 -11z"/>
<path d="M9523 5299 c-186 -31 -321 -153 -369 -334 -18 -64 -18 -206 0 -270
30 -113 96 -207 185 -264 228 -146 552 -75 669 147 57 108 62 102 -77 102
l-121 0 -47 -49 c-51 -52 -96 -71 -168 -71 -55 0 -137 40 -170 83 -50 67 -70
189 -44 281 49 178 269 235 388 100 l39 -44 121 0 c141 0 136 -6 79 102 -59
112 -182 196 -318 217 -74 12 -94 12 -167 0z"/>
<path d="M10908 5295 c-163 -41 -291 -161 -339 -316 -21 -68 -25 -195 -8 -268
50 -220 266 -374 499 -358 l75 6 58 -80 59 -79 134 0 c74 0 134 3 134 6 0 3
-44 58 -98 122 l-99 117 48 47 c100 99 152 265 129 411 -36 235 -209 390 -450
402 -55 3 -105 0 -142 -10z m202 -205 c52 -14 109 -67 136 -124 19 -41 24 -67
23 -131 0 -133 -41 -209 -137 -252 -46 -22 -65 -25 -121 -21 -73 5 -112 22
-155 64 -45 45 -67 100 -73 178 -6 83 6 134 46 197 52 83 170 120 281 89z"/>
<path d="M4431 5278 c-5 -13 -78 -216 -164 -453 -85 -236 -158 -438 -162 -447
-7 -17 3 -18 113 -18 l120 0 28 83 29 82 174 0 174 0 27 -80 27 -80 121 -3
122 -3 -32 88 c-17 48 -93 259 -169 468 l-137 380 -131 3 c-129 3 -131 2 -140
-20z m198 -412 c28 -82 51 -153 51 -157 0 -5 -49 -9 -110 -9 -81 0 -110 3
-110 13 -1 25 105 316 112 309 3 -4 29 -74 57 -156z"/>
<path d="M7010 4830 l0 -470 115 0 115 0 2 272 3 272 101 -269 101 -270 94 0
94 0 100 269 100 270 3 -272 2 -272 115 0 115 0 0 470 0 470 -133 0 -133 0
-128 -321 c-71 -176 -132 -317 -137 -312 -7 7 -259 620 -259 630 0 2 -61 3
-135 3 l-135 0 0 -470z"/>
<path d="M8230 4995 c0 -320 6 -376 45 -455 32 -64 110 -133 181 -160 77 -31
232 -34 310 -7 110 38 199 129 232 237 14 46 16 105 17 370 l0 315 -112 3
-112 3 -3 -313 c-3 -292 -4 -315 -23 -347 -29 -49 -63 -71 -121 -77 -75 -9
-138 21 -164 78 -18 40 -20 67 -20 351 l0 307 -115 0 -115 0 0 -305z"/>
<path d="M10190 4830 l0 -470 115 0 115 0 -2 468 -3 467 -112 3 -113 3 0 -471z"/>
<path d="M3593 3799 c-60 -27 -63 -31 -63 -64 0 -39 -5 -39 93 4 43 19 47 23
47 56 0 19 -3 35 -7 34 -5 0 -36 -14 -70 -30z"/>
<path d="M2365 3796 c-36 -36 -12 -86 41 -86 51 0 73 66 32 94 -31 22 -45 20
-73 -8z"/>
<path d="M3285 3796 c-36 -36 -12 -86 41 -86 51 0 73 66 32 94 -31 22 -45 20
-73 -8z"/>
<path d="M5672 3804 c-59 -41 4 -118 69 -84 39 21 11 100 -36 100 -6 0 -21 -7
-33 -16z"/>
<path d="M6190 3800 c-24 -24 -25 -38 -4 -68 30 -43 104 -18 104 36 0 23 -34
52 -62 52 -10 0 -27 -9 -38 -20z"/>
<path d="M9262 3804 c-43 -30 -16 -94 41 -94 57 0 73 81 20 101 -32 12 -35 12
-61 -7z"/>
<path d="M13385 3796 c-36 -36 -12 -86 41 -86 51 0 73 66 32 94 -31 22 -45 20
-73 -8z"/>
<path d="M7140 3565 l0 -215 50 0 50 0 0 215 0 215 -50 0 -50 0 0 -215z"/>
<path d="M7670 3710 c0 -38 -3 -70 -7 -70 -3 0 -14 7 -24 16 -27 25 -91 29
-132 9 -100 -47 -114 -215 -26 -290 40 -33 117 -35 160 -4 l29 20 0 -20 c0
-18 6 -21 45 -21 l45 0 0 215 0 215 -45 0 -45 0 0 -70z m-26 -139 c34 -38 21
-112 -24 -131 -38 -16 -67 -5 -85 30 -20 39 -19 62 6 94 25 32 77 36 103 7z"/>
<path d="M926 3568 c-38 -106 -72 -199 -74 -206 -3 -10 8 -12 49 -10 51 3 54
5 63 36 l9 32 78 0 77 0 12 -35 c11 -34 13 -35 65 -35 l53 0 -33 93 c-18 50
-51 142 -73 202 l-39 110 -59 3 -59 3 -69 -193z m168 -45 c7 -22 5 -23 -43
-23 l-50 0 20 58 c10 31 22 64 25 72 6 14 20 -19 48 -107z"/>
<path d="M4330 3555 l0 -205 50 0 50 0 0 117 c0 66 4 113 9 108 4 -6 26 -58
47 -117 l39 -108 41 0 42 0 36 103 c21 56 41 109 46 117 6 10 10 -26 10 -102
l0 -118 50 0 50 0 0 205 0 206 -61 -3 -61 -3 -56 -139 c-44 -110 -57 -136 -64
-120 -4 10 -30 73 -56 139 l-48 120 -62 3 -62 3 0 -206z"/>
<path d="M8320 3555 l0 -205 50 0 50 0 1 118 0 117 18 -45 c10 -25 30 -78 46
-118 l27 -73 41 3 41 3 42 115 43 115 1 -117 0 -118 50 0 50 0 0 205 0 205
-57 0 -58 0 -55 -140 c-30 -76 -58 -136 -61 -132 -3 4 -30 67 -60 140 l-53
132 -58 0 -58 0 0 -205z"/>
<path d="M10935 3745 c-123 -66 -154 -234 -62 -333 95 -102 289 -73 336 51
l11 27 -51 0 c-40 0 -58 -6 -81 -25 -87 -73 -194 18 -159 135 21 71 102 93
160 44 25 -21 39 -25 81 -22 l50 3 -17 34 c-10 19 -35 48 -56 65 -34 27 -48
31 -110 34 -52 2 -80 -2 -102 -13z"/>
<path d="M1370 3673 c-38 -14 -70 -57 -70 -93 0 -48 31 -76 106 -99 46 -13 59
-22 59 -37 0 -28 -49 -31 -72 -5 -24 28 -103 30 -103 3 0 -53 64 -92 151 -92
56 0 64 3 95 34 21 21 34 44 34 59 0 41 -44 83 -99 97 -27 6 -58 18 -68 26
-17 13 -17 15 0 28 20 16 56 10 64 -10 3 -9 21 -14 49 -14 49 0 57 17 28 59
-29 41 -120 64 -174 44z"/>
<path d="M1705 3666 c-88 -39 -122 -153 -72 -240 29 -52 77 -76 148 -76 71 0
115 27 148 93 27 55 24 111 -9 165 -37 61 -144 89 -215 58z m117 -93 c46 -53
16 -143 -47 -143 -9 0 -27 11 -40 25 -29 28 -33 79 -9 113 19 27 74 30 96 5z"/>
<path d="M2075 3666 c-114 -50 -126 -231 -20 -296 51 -31 152 -26 191 10 23
22 54 70 54 85 0 3 -24 5 -53 5 -41 0 -55 -4 -65 -20 -16 -26 -54 -26 -78 1
-23 25 -26 98 -5 122 17 22 79 23 87 2 5 -11 21 -15 60 -15 30 0 54 4 54 9 0
21 -49 78 -80 93 -41 21 -103 23 -145 4z"/>
<path d="M2357 3673 c-4 -3 -7 -78 -7 -165 l0 -158 50 0 50 0 0 165 0 165 -43
0 c-24 0 -47 -3 -50 -7z"/>
<path d="M2579 3657 c-45 -30 -69 -80 -69 -145 0 -65 29 -126 70 -147 43 -22
112 -19 144 6 l26 20 0 -20 c0 -18 6 -21 50 -21 l50 0 0 165 0 165 -50 0 c-43
0 -50 -3 -50 -20 0 -20 0 -20 -32 0 -44 27 -97 25 -139 -3z m151 -89 c42 -45
8 -138 -50 -138 -34 0 -70 44 -70 85 0 67 75 101 120 53z"/>
<path d="M2995 3666 c-114 -50 -126 -231 -20 -296 51 -31 152 -26 191 10 23
22 54 70 54 85 0 3 -24 5 -53 5 -41 0 -55 -4 -65 -20 -16 -26 -54 -26 -78 1
-23 25 -26 98 -5 122 17 22 79 23 87 2 5 -11 21 -15 60 -15 30 0 54 4 54 9 0
21 -49 78 -80 93 -41 21 -103 23 -145 4z"/>
<path d="M3277 3673 c-4 -3 -7 -78 -7 -165 l0 -158 50 0 50 0 0 165 0 165 -43
0 c-24 0 -47 -3 -50 -7z"/>
<path d="M3530 3669 c-61 -25 -100 -85 -100 -156 0 -100 61 -163 159 -163 69
0 117 23 149 70 20 30 23 45 20 100 -2 45 -10 74 -23 92 -40 56 -139 83 -205
57z m114 -101 c26 -36 21 -93 -10 -117 -34 -27 -52 -26 -81 1 -49 46 -21 138
42 138 24 0 39 -7 49 -22z"/>
<path d="M3820 3515 l0 -165 50 0 50 0 0 103 c0 119 9 140 60 140 51 0 60 -21
60 -140 l0 -103 51 0 51 0 -4 130 -3 130 -31 31 c-41 41 -100 49 -148 21 -33
-20 -34 -20 -39 -1 -4 15 -14 19 -51 19 l-46 0 0 -165z"/>
<path d="M4870 3560 c0 -129 9 -164 52 -194 33 -23 109 -21 142 5 l26 20 0
-20 c0 -18 6 -21 50 -21 l50 0 0 165 0 165 -50 0 -50 0 0 -105 c0 -92 -3 -108
-20 -125 -26 -26 -62 -25 -86 1 -16 17 -20 40 -22 125 l-4 104 -44 0 -44 0 0
-120z"/>
<path d="M5267 3673 c-4 -3 -7 -78 -7 -165 l0 -158 49 0 49 0 4 105 c3 115 14
138 64 138 50 0 64 -32 64 -144 l0 -99 50 0 50 0 -1 108 c0 59 -5 122 -12 141
-25 70 -107 99 -177 62 -39 -20 -40 -20 -40 -1 0 17 -7 20 -43 20 -24 0 -47
-3 -50 -7z"/>
<path d="M5660 3516 l0 -166 50 0 50 0 -2 163 -3 162 -47 3 -48 3 0 -165z"/>
<path d="M5893 3660 c-104 -53 -112 -220 -13 -287 25 -17 47 -23 90 -23 68 0
116 27 143 80 l17 35 -49 3 c-40 2 -54 -1 -70 -17 -41 -41 -89 -18 -98 47 -10
75 49 121 98 76 12 -10 32 -14 67 -12 l51 3 -16 33 c-36 73 -140 103 -220 62z"/>
<path d="M6187 3673 c-4 -3 -7 -78 -7 -165 l0 -158 50 0 50 0 0 165 0 165 -43
0 c-24 0 -47 -3 -50 -7z"/>
<path d="M6354 3667 c-2 -7 -3 -116 -2 -242 l3 -230 48 -3 47 -3 0 101 0 101
26 -20 c35 -28 107 -28 151 -1 94 57 90 239 -8 292 -40 23 -110 20 -138 -6
-23 -21 -31 -20 -31 4 0 17 -7 20 -45 20 -28 0 -48 -5 -51 -13z m218 -94 c37
-44 26 -113 -22 -133 -38 -16 -67 -5 -86 32 -28 55 4 118 61 118 18 0 39 -8
47 -17z"/>
<path d="M6802 3660 c-61 -38 -90 -148 -58 -223 7 -18 28 -45 45 -60 42 -35
115 -38 155 -6 l26 20 0 -20 c0 -18 6 -21 50 -21 l50 0 0 165 0 165 -46 0
c-37 0 -47 -4 -51 -19 -5 -19 -5 -19 -36 0 -41 25 -93 24 -135 -1z m148 -90
c31 -31 27 -93 -6 -119 -35 -27 -59 -26 -89 4 -35 34 -30 101 9 127 21 14 66
8 86 -12z"/>
<path d="M7900 3658 c-56 -29 -80 -74 -80 -148 0 -99 60 -160 158 -160 29 0
66 7 82 15 32 16 70 61 70 81 0 20 -93 19 -110 -1 -18 -22 -77 -19 -90 4 -20
38 -13 41 100 41 l110 0 0 38 c0 118 -128 187 -240 130z m122 -75 c34 -31 23
-43 -42 -43 -64 0 -73 9 -43 42 20 22 61 23 85 1z"/>
<path d="M8854 3665 c-4 -8 -4 -66 -2 -128 4 -122 15 -154 64 -175 38 -18 95
-14 132 8 32 20 32 20 32 0 0 -17 7 -20 45 -20 l45 0 0 165 0 165 -44 0 -44 0
-4 -104 c-2 -85 -6 -108 -22 -125 -24 -26 -60 -27 -86 -1 -17 17 -20 33 -20
125 l0 105 -45 0 c-31 0 -47 -5 -51 -15z"/>
<path d="M9248 3483 l-3 -198 -28 -3 c-26 -3 -28 -6 -25 -45 l3 -42 45 3 c54
4 87 24 101 59 5 14 8 111 7 222 l-3 196 -47 3 -48 3 -2 -198z"/>
<path d="M9483 3659 c-104 -51 -112 -219 -13 -286 25 -17 47 -23 90 -23 66 0
112 25 143 78 l19 32 -55 0 c-36 0 -59 -5 -67 -15 -17 -21 -63 -19 -83 3 -34
37 -22 42 92 42 121 0 122 1 110 63 -19 107 -132 158 -236 106z m121 -75 c32
-32 20 -44 -44 -44 -66 0 -79 15 -38 44 29 20 62 20 82 0z"/>
<path d="M9780 3516 l0 -166 50 0 50 0 0 93 c0 106 11 127 68 127 l32 0 0 55
c0 64 -8 68 -63 31 l-36 -25 -3 22 c-3 19 -10 22 -50 25 l-48 3 0 -165z"/>
<path d="M10093 3659 c-104 -51 -112 -219 -13 -286 25 -17 47 -23 90 -23 66 0
112 25 143 78 l19 32 -55 0 c-36 0 -59 -5 -67 -15 -17 -21 -63 -19 -83 3 -34
37 -22 42 92 42 121 0 122 1 110 63 -19 107 -132 158 -236 106z m121 -75 c32
-32 20 -44 -44 -44 -66 0 -79 15 -38 44 29 20 62 20 82 0z"/>
<path d="M10444 3666 c-97 -42 -76 -161 31 -180 57 -11 90 -33 74 -52 -17 -20
-57 -17 -71 6 -10 15 -24 20 -60 20 -52 0 -56 -6 -33 -49 19 -37 71 -61 135
-61 81 0 129 36 130 96 0 43 -35 74 -111 99 -68 22 -82 37 -48 55 18 10 26 8
50 -9 18 -13 43 -21 69 -21 38 0 41 2 34 23 -21 72 -120 107 -200 73z"/>
<path d="M11343 3664 c-96 -49 -108 -216 -22 -289 39 -32 109 -34 157 -5 32
20 32 20 32 0 0 -17 7 -20 45 -20 l45 0 0 165 0 165 -45 0 c-38 0 -45 -3 -45
-20 0 -24 -8 -25 -31 -4 -26 24 -97 28 -136 8z m141 -93 c34 -38 21 -112 -24
-131 -38 -16 -67 -5 -85 30 -20 39 -19 62 6 94 25 32 77 36 103 7z"/>
<path d="M11680 3515 l0 -165 50 0 50 0 0 110 c0 119 5 130 63 130 46 0 57
-27 57 -138 l0 -102 50 0 50 0 0 103 c0 116 10 137 66 137 48 0 54 -14 54
-132 l0 -108 50 0 50 0 0 126 0 126 -33 33 c-19 19 -46 37 -60 41 -40 9 -91
-3 -120 -30 -25 -23 -26 -23 -43 -5 -37 41 -135 49 -165 13 -11 -14 -14 -13
-21 5 -6 17 -16 21 -53 21 l-45 0 0 -165z"/>
<path d="M12294 3667 c-2 -7 -3 -116 -2 -242 l3 -230 48 -3 47 -3 0 101 0 101
26 -20 c35 -28 107 -28 151 -1 94 57 90 239 -8 292 -40 23 -110 20 -138 -6
-23 -21 -31 -20 -31 4 0 17 -7 20 -45 20 -28 0 -48 -5 -51 -13z m218 -94 c37
-44 26 -113 -22 -133 -38 -16 -67 -5 -86 32 -28 55 4 118 61 118 18 0 39 -8
47 -17z"/>
<path d="M12765 3666 c-91 -40 -120 -159 -64 -252 52 -86 215 -86 269 1 11 18
20 35 20 39 0 13 -102 6 -116 -9 -23 -23 -70 -19 -88 7 -9 12 -16 26 -16 30 0
5 52 8 116 8 l117 0 -7 48 c-11 83 -65 133 -148 139 -31 2 -66 -2 -83 -11z
m106 -76 c10 -6 19 -20 19 -30 0 -17 -7 -20 -54 -20 -63 0 -75 11 -46 40 22
22 51 26 81 10z"/>
<path d="M13105 3666 c-39 -17 -55 -37 -62 -78 -8 -50 25 -82 107 -105 51 -15
65 -23 65 -39 0 -29 -59 -33 -77 -5 -10 17 -23 21 -61 21 -46 0 -48 -1 -41
-22 16 -55 70 -88 144 -88 84 0 130 35 130 97 0 48 -25 71 -100 94 -53 16 -70
25 -70 39 0 28 31 33 62 10 29 -22 108 -28 108 -9 0 24 -36 70 -66 84 -39 18
-98 19 -139 1z"/>
<path d="M13377 3673 c-4 -3 -7 -78 -7 -165 l0 -158 50 0 50 0 0 165 0 165
-43 0 c-24 0 -47 -3 -50 -7z"/>
<path d="M13550 3515 l0 -165 50 0 49 0 3 112 c3 112 3 113 30 126 22 10 32
10 50 1 35 -19 38 -27 38 -136 l0 -103 50 0 50 0 0 110 c0 128 -13 169 -62
200 -39 25 -108 22 -137 -4 -17 -16 -19 -16 -24 4 -4 16 -13 20 -51 20 l-46 0
0 -165z"/>
<path d="M14003 3664 c-96 -49 -108 -216 -22 -289 39 -32 109 -34 157 -5 32
20 32 20 32 0 0 -17 7 -20 45 -20 l45 0 0 165 0 165 -45 0 c-38 0 -45 -3 -45
-20 0 -24 -8 -25 -31 -4 -26 24 -97 28 -136 8z m141 -93 c34 -38 21 -112 -24
-131 -38 -16 -67 -5 -85 30 -20 39 -19 62 6 94 25 32 77 36 103 7z"/>
<path d="M14394 3666 c-97 -42 -76 -161 31 -180 57 -11 90 -33 74 -52 -17 -20
-57 -17 -71 6 -10 15 -24 20 -60 20 -52 0 -56 -6 -33 -49 19 -37 71 -61 135
-61 81 0 129 36 130 96 0 43 -35 74 -111 99 -68 22 -82 37 -48 55 18 10 26 8
50 -9 18 -13 43 -21 69 -21 38 0 41 2 34 23 -21 72 -120 107 -200 73z"/>
<path d="M14657 3363 c-8 -43 -12 -82 -7 -86 4 -5 18 -7 31 -5 18 2 29 19 55
86 l32 82 -48 0 -47 0 -16 -77z"/>
<path d="M6422 2994 c-43 -30 -16 -94 41 -94 26 0 57 31 57 57 0 19 -37 53
-58 53 -10 0 -28 -7 -40 -16z"/>
<path d="M9172 2994 c-43 -30 -16 -94 41 -94 26 0 57 31 57 57 0 19 -37 53
-58 53 -10 0 -28 -7 -40 -16z"/>
<path d="M3383 2989 c-40 -12 -73 -53 -73 -90 0 -22 -5 -29 -20 -29 -17 0 -20
-7 -20 -45 0 -38 3 -45 20 -45 19 0 20 -7 20 -120 l0 -120 50 0 50 0 0 120 0
120 25 0 c23 0 25 4 25 45 0 42 -2 45 -26 45 -33 0 -30 33 4 38 19 3 22 9 22
48 0 49 -9 53 -77 33z"/>
<path d="M4850 2755 l0 -215 50 0 50 0 0 215 0 215 -50 0 -50 0 0 -215z"/>
<path d="M6010 2755 l0 -215 50 0 c44 0 50 3 50 21 l0 20 26 -20 c35 -28 107
-28 151 -1 94 57 90 239 -8 292 -40 23 -110 20 -138 -6 -10 -9 -21 -16 -24
-16 -4 0 -7 32 -7 70 l0 70 -50 0 -50 0 0 -215z m222 8 c37 -44 26 -113 -22
-133 -38 -16 -67 -5 -86 32 -28 55 4 118 61 118 18 0 39 -8 47 -17z"/>
<path d="M10020 2755 l0 -215 50 0 50 0 0 215 0 215 -50 0 -50 0 0 -215z"/>
<path d="M12250 2755 l0 -215 50 0 50 0 0 215 0 215 -50 0 -50 0 0 -215z"/>
<path d="M410 2745 l0 -205 50 0 50 0 0 128 1 127 82 -127 82 -128 53 0 52 0
0 205 0 205 -50 0 -49 0 -3 -125 -3 -125 -82 125 -82 125 -51 0 -50 0 0 -205z"/>
<path d="M2979 2923 c-6 -15 -37 -100 -69 -188 -32 -88 -61 -168 -65 -177 -6
-16 -1 -18 47 -18 54 0 55 1 64 33 l10 32 79 0 79 0 10 -32 c9 -32 11 -33 62
-33 30 0 54 1 54 3 0 1 -33 92 -73 202 l-72 200 -58 3 c-54 3 -58 2 -68 -25z
m90 -155 c12 -34 21 -66 21 -70 0 -4 -20 -8 -45 -8 -25 0 -45 4 -45 8 0 11 41
132 45 132 2 0 13 -28 24 -62z"/>
<path d="M8380 2745 l0 -205 50 0 50 0 0 75 c0 58 3 75 14 75 8 0 33 -34 55
-75 l42 -75 55 0 55 0 -32 58 c-18 31 -38 66 -45 76 -12 17 -8 23 27 55 48 43
59 88 35 144 -23 57 -75 77 -203 77 l-103 0 0 -205z m200 105 c23 -23 24 -33
10 -61 -8 -15 -22 -19 -60 -19 l-50 0 0 50 0 50 40 0 c27 0 47 -7 60 -20z"/>
<path d="M11490 2745 l0 -205 50 0 50 0 0 75 0 75 59 0 c122 0 189 102 131
198 -29 48 -72 62 -190 62 l-100 0 0 -205z m194 109 c19 -18 21 -55 4 -72 -7
-7 -31 -12 -55 -12 l-43 0 0 50 0 50 39 0 c23 0 46 -7 55 -16z"/>
<path d="M913 2849 c-104 -51 -112 -219 -13 -286 25 -17 47 -23 90 -23 66 0
112 25 143 78 l19 32 -55 0 c-36 0 -59 -5 -67 -15 -17 -21 -63 -19 -83 3 -34
37 -22 42 92 42 121 0 122 1 110 63 -19 107 -132 158 -236 106z m121 -75 c32
-32 20 -44 -44 -44 -66 0 -79 15 -38 44 29 20 62 20 82 0z"/>
<path d="M1262 2850 c-61 -38 -90 -148 -58 -223 7 -18 28 -45 45 -60 42 -35
115 -38 155 -6 l26 20 0 -39 c0 -25 -6 -45 -18 -55 -25 -23 -78 -21 -102 3
-20 20 -93 29 -104 12 -12 -20 31 -78 74 -100 56 -29 145 -27 188 4 55 41 62
71 62 277 l0 187 -46 0 c-37 0 -47 -4 -51 -19 -5 -19 -5 -19 -36 0 -41 25 -93
24 -135 -1z m148 -90 c31 -31 27 -93 -6 -119 -35 -27 -59 -26 -89 4 -35 34
-30 101 9 127 21 14 66 8 86 -12z"/>
<path d="M1607 2863 c-4 -3 -7 -78 -7 -165 l0 -158 50 0 50 0 0 83 c0 105 13
130 65 137 l40 5 0 50 c0 47 -2 50 -24 47 -13 -1 -36 -11 -52 -23 l-29 -20 0
25 c0 24 -3 26 -43 26 -24 0 -47 -3 -50 -7z"/>
<path d="M1930 2863 c-24 -9 -61 -46 -78 -78 -20 -40 -20 -131 2 -173 36 -69
143 -96 200 -51 l26 20 0 -20 c0 -18 6 -21 50 -21 l50 0 -2 163 -3 162 -47 3
c-43 3 -48 1 -48 -17 l0 -21 -37 20 c-36 19 -82 24 -113 13z m130 -110 c27
-34 22 -89 -11 -115 -28 -23 -50 -23 -83 3 -20 16 -26 29 -26 61 0 52 22 78
66 78 24 0 38 -8 54 -27z"/>
<path d="M2305 2856 c-39 -17 -55 -37 -62 -78 -8 -50 25 -82 107 -105 51 -15
65 -23 65 -39 0 -29 -59 -33 -77 -5 -10 17 -23 21 -61 21 -46 0 -48 -1 -41
-22 16 -55 70 -88 144 -88 84 0 130 35 130 97 0 48 -25 71 -100 94 -53 16 -70
25 -70 39 0 28 31 33 62 10 29 -22 108 -28 108 -9 0 24 -36 70 -66 84 -39 18
-98 19 -139 1z"/>
<path d="M3510 2706 l0 -166 50 0 50 0 0 94 c0 108 10 126 66 126 l34 0 0 56
0 56 -27 -7 c-16 -3 -38 -16 -50 -27 l-21 -20 -4 24 c-3 20 -9 23 -50 26 l-48
3 0 -165z"/>
<path d="M3840 2859 c-61 -25 -100 -85 -100 -156 0 -100 61 -163 159 -163 69
0 117 23 149 70 20 30 23 45 20 100 -2 45 -10 74 -23 92 -40 56 -139 83 -205
57z m114 -101 c26 -36 21 -93 -10 -117 -34 -27 -52 -26 -81 1 -49 46 -21 138
42 138 24 0 39 -7 49 -22z"/>
<path d="M4190 2848 c-56 -29 -80 -74 -80 -148 0 -99 60 -160 158 -160 64 0
106 20 132 63 30 49 26 57 -28 57 -35 0 -52 -5 -65 -20 -39 -46 -97 -8 -97 63
0 30 6 49 18 60 23 21 65 22 82 2 15 -18 110 -21 110 -4 0 26 -38 71 -75 89
-54 26 -101 25 -155 -2z"/>
<path d="M4550 2848 c-61 -31 -94 -92 -86 -163 10 -90 73 -145 166 -145 43 0
65 6 90 23 58 39 75 71 75 140 0 76 -27 120 -89 148 -55 25 -102 24 -156 -3z
m124 -84 c38 -37 29 -108 -17 -134 -24 -13 -30 -13 -54 0 -67 38 -47 150 27
150 16 0 36 -7 44 -16z"/>
<path d="M5094 2852 c-111 -53 -120 -219 -14 -289 24 -17 47 -23 89 -23 111 0
175 66 168 173 -4 61 -22 95 -70 131 -38 28 -121 32 -173 8z m130 -94 c36 -51
1 -138 -54 -138 -52 0 -83 98 -43 142 23 26 78 24 97 -4z"/>
<path d="M5400 2705 l0 -165 50 0 50 0 0 110 c0 119 5 130 63 130 46 0 57 -27
57 -138 l0 -102 50 0 50 0 0 103 c0 116 10 137 66 137 48 0 54 -14 54 -132 l0
-108 50 0 50 0 0 126 0 126 -33 33 c-19 19 -46 37 -60 41 -40 9 -91 -3 -120
-30 -25 -23 -26 -23 -43 -5 -37 41 -135 49 -165 13 -11 -14 -14 -13 -21 5 -6
17 -16 21 -53 21 l-45 0 0 -165z"/>
<path d="M6410 2706 l0 -166 50 0 50 0 -2 163 -3 162 -47 3 -48 3 0 -165z"/>
<path d="M6643 2854 c-96 -49 -108 -216 -22 -289 39 -32 109 -34 157 -5 32 20
32 20 32 0 0 -17 7 -20 45 -20 l45 0 0 165 0 165 -45 0 c-38 0 -45 -3 -45 -20
0 -24 -8 -25 -31 -4 -26 24 -97 28 -136 8z m141 -93 c34 -38 21 -112 -24 -131
-38 -16 -67 -5 -85 30 -20 39 -19 62 6 94 25 32 77 36 103 7z"/>
<path d="M6980 2705 l0 -165 50 0 49 0 3 112 c3 112 3 113 30 126 22 10 32 10
50 1 35 -19 38 -27 38 -136 l0 -103 50 0 50 0 0 110 c0 128 -13 169 -62 200
-39 25 -108 22 -137 -4 -17 -16 -19 -16 -24 4 -4 16 -13 20 -51 20 l-46 0 0
-165z"/>
<path d="M7422 2850 c-61 -38 -90 -148 -58 -223 7 -18 28 -45 45 -60 42 -35
115 -38 155 -6 l26 20 0 -20 c0 -18 6 -21 50 -21 l50 0 0 165 0 165 -46 0
c-37 0 -47 -4 -51 -19 -5 -19 -5 -19 -36 0 -41 25 -93 24 -135 -1z m148 -90
c31 -31 27 -93 -6 -119 -35 -27 -59 -26 -89 4 -35 34 -30 101 9 127 21 14 66
8 86 -12z"/>
<path d="M7824 2856 c-97 -42 -76 -161 31 -180 57 -11 90 -33 74 -52 -17 -20
-57 -17 -71 6 -10 15 -24 20 -60 20 -52 0 -56 -6 -33 -49 19 -37 71 -61 135
-61 81 0 129 36 130 96 0 43 -35 74 -111 99 -68 22 -82 37 -48 55 18 10 26 8
50 -9 18 -13 43 -21 69 -21 38 0 41 2 34 23 -21 72 -120 107 -200 73z"/>
<path d="M8840 2863 c-24 -9 -61 -46 -78 -78 -20 -40 -20 -131 2 -173 36 -69
143 -96 200 -51 l26 20 0 -20 c0 -18 6 -21 50 -21 l50 0 -2 163 -3 162 -47 3
c-43 3 -48 1 -48 -17 l0 -21 -37 20 c-36 19 -82 24 -113 13z m130 -110 c27
-34 22 -89 -11 -115 -28 -23 -50 -23 -83 3 -20 16 -26 29 -26 61 0 52 22 78
66 78 24 0 38 -8 54 -27z"/>
<path d="M9160 2706 l0 -166 50 0 50 0 -2 163 -3 162 -47 3 -48 3 0 -165z"/>
<path d="M9314 2856 c-3 -8 -4 -27 -2 -43 3 -27 6 -28 67 -33 l64 -5 -67 -80
c-56 -67 -66 -85 -66 -117 l0 -38 130 0 130 0 0 40 0 39 -71 3 -72 3 67 80
c59 71 66 84 66 122 l0 43 -120 0 c-95 0 -122 -3 -126 -14z"/>
<path d="M9672 2850 c-61 -38 -90 -148 -58 -223 7 -18 28 -45 45 -60 42 -35
115 -38 155 -6 l26 20 0 -20 c0 -18 6 -21 50 -21 l50 0 0 165 0 165 -46 0
c-37 0 -47 -4 -51 -19 -5 -19 -5 -19 -36 0 -41 25 -93 24 -135 -1z m148 -90
c31 -31 27 -93 -6 -119 -35 -27 -59 -26 -89 4 -35 34 -30 101 9 127 21 14 66
8 86 -12z"/>
<path d="M10253 2849 c-104 -51 -112 -219 -13 -286 25 -17 47 -23 90 -23 66 0
112 25 143 78 l19 32 -55 0 c-36 0 -59 -5 -67 -15 -17 -21 -63 -19 -83 3 -34
37 -22 42 92 42 121 0 122 1 110 63 -19 107 -132 158 -236 106z m121 -75 c32
-32 20 -44 -44 -44 -66 0 -79 15 -38 44 29 20 62 20 82 0z"/>
<path d="M10604 2856 c-97 -42 -76 -161 31 -180 57 -11 90 -33 74 -52 -17 -20
-57 -17 -71 6 -10 15 -24 20 -60 20 -52 0 -56 -6 -33 -49 19 -37 71 -61 135
-61 81 0 129 36 130 96 0 43 -35 74 -111 99 -68 22 -82 37 -48 55 18 10 26 8
50 -9 18 -13 43 -21 69 -21 38 0 41 2 34 23 -21 72 -120 107 -200 73z"/>
<path d="M10960 2866 c0 -2 29 -73 65 -157 72 -167 71 -151 21 -261 l-26 -58
53 0 54 0 96 228 c53 125 97 233 97 240 0 8 -18 12 -49 12 l-49 0 -31 -87
c-41 -113 -47 -123 -56 -92 -4 13 -21 59 -37 102 l-30 77 -54 0 c-30 0 -54 -2
-54 -4z"/>
<path d="M11913 2854 c-96 -49 -108 -216 -22 -289 39 -32 109 -34 157 -5 32
20 32 20 32 0 0 -17 7 -20 45 -20 l45 0 0 165 0 165 -45 0 c-38 0 -45 -3 -45
-20 0 -24 -8 -25 -31 -4 -26 24 -97 28 -136 8z m141 -93 c34 -38 21 -112 -24
-131 -38 -16 -67 -5 -85 30 -20 39 -19 62 6 94 25 32 77 36 103 7z"/>
<path d="M12495 2856 c-91 -40 -120 -159 -64 -252 52 -86 215 -86 269 1 11 18
20 35 20 39 0 13 -102 6 -116 -9 -23 -23 -70 -19 -88 7 -9 12 -16 26 -16 30 0
5 52 8 116 8 l117 0 -7 48 c-11 83 -65 133 -148 139 -31 2 -66 -2 -83 -11z
m106 -76 c10 -6 19 -20 19 -30 0 -17 -7 -20 -54 -20 -63 0 -75 11 -46 40 22
22 51 26 81 10z"/>
<path d="M12780 2705 l0 -165 50 0 50 0 0 103 c0 119 9 140 60 140 51 0 60
-21 60 -140 l0 -103 51 0 51 0 -4 130 -3 130 -31 31 c-41 41 -100 49 -148 21
-33 -20 -34 -20 -39 -1 -4 15 -14 19 -51 19 l-46 0 0 -165z"/>
<path d="M13241 2852 c-101 -51 -117 -198 -30 -277 33 -30 46 -35 88 -35 34 0
56 6 75 21 l26 20 0 -101 0 -101 48 3 47 3 0 240 0 240 -47 3 c-43 3 -48 1
-48 -17 l0 -21 -32 20 c-41 25 -82 25 -127 2z m138 -98 c25 -31 26 -55 6 -93
-33 -66 -117 -40 -123 37 -2 31 2 46 17 61 30 30 75 27 100 -5z"/>
<path d="M13570 2750 c0 -129 9 -164 52 -194 33 -23 109 -21 142 5 l26 20 0
-20 c0 -18 6 -21 50 -21 l50 0 0 165 0 165 -50 0 -50 0 0 -105 c0 -92 -3 -108
-20 -125 -26 -26 -62 -25 -86 1 -16 17 -20 40 -22 125 l-4 104 -44 0 -44 0 0
-120z"/>
<path d="M14035 2856 c-91 -40 -120 -159 -64 -252 52 -86 215 -86 269 1 11 18
20 35 20 39 0 13 -102 6 -116 -9 -23 -23 -70 -19 -88 7 -9 12 -16 26 -16 30 0
5 52 8 116 8 l117 0 -7 48 c-11 83 -65 133 -148 139 -31 2 -66 -2 -83 -11z
m106 -76 c10 -6 19 -20 19 -30 0 -17 -7 -20 -54 -20 -63 0 -75 11 -46 40 22
22 51 26 81 10z"/>
<path d="M14327 2863 c-4 -3 -7 -78 -7 -165 l0 -158 50 0 50 0 0 88 c0 105 13
132 66 132 l34 0 0 55 c0 64 -8 68 -64 30 l-36 -24 0 24 c0 23 -4 25 -43 25
-24 0 -47 -3 -50 -7z"/>
<path d="M14633 2854 c-96 -49 -108 -216 -22 -289 39 -32 109 -34 157 -5 32
20 32 20 32 0 0 -17 7 -20 45 -20 l45 0 0 165 0 165 -45 0 c-38 0 -45 -3 -45
-20 0 -24 -8 -25 -31 -4 -26 24 -97 28 -136 8z m141 -93 c34 -38 21 -112 -24
-131 -38 -16 -67 -5 -85 30 -20 39 -19 62 6 94 25 32 77 36 103 7z"/>
<path d="M15024 2856 c-97 -42 -76 -161 31 -180 57 -11 90 -33 74 -52 -17 -20
-57 -17 -71 6 -10 15 -24 20 -60 20 -52 0 -56 -6 -33 -49 19 -37 71 -61 135
-61 81 0 129 36 130 96 0 43 -35 74 -111 99 -68 22 -82 37 -48 55 18 10 26 8
50 -9 18 -13 43 -21 69 -21 38 0 41 2 34 23 -21 72 -120 107 -200 73z"/>
<path d="M2585 2608 c-32 -142 -32 -148 -1 -148 13 0 28 6 33 13 9 11 63 142
63 152 0 3 -20 5 -45 5 -38 0 -45 -3 -50 -22z"/>
<path d="M8087 2553 c-8 -43 -12 -82 -7 -86 4 -5 18 -7 31 -5 18 2 29 19 55
86 l32 82 -48 0 -47 0 -16 -77z"/>
<path d="M10753 2170 c-60 -28 -63 -31 -63 -64 l0 -35 68 28 c64 26 67 29 70
64 2 20 0 37 -5 37 -4 0 -36 -13 -70 -30z"/>
<path d="M9650 2170 c-24 -24 -25 -38 -4 -68 30 -43 104 -18 104 36 0 23 -34
52 -62 52 -10 0 -27 -9 -38 -20z"/>
<path d="M6930 1935 l0 -215 50 0 50 0 0 215 0 215 -50 0 -50 0 0 -215z"/>
<path d="M8130 2080 l0 -70 -32 20 c-69 42 -154 13 -188 -63 -54 -118 8 -247
119 -247 34 0 56 6 75 21 l26 20 0 -20 c0 -18 6 -21 50 -21 l50 0 0 215 0 215
-50 0 -50 0 0 -70z m-20 -140 c31 -31 27 -93 -6 -119 -35 -27 -59 -26 -89 4
-35 34 -30 101 9 127 21 14 66 8 86 -12z"/>
<path d="M9810 1935 l0 -215 50 0 c44 0 50 3 50 21 l0 20 26 -20 c35 -28 107
-28 151 -1 94 57 90 239 -8 292 -40 23 -110 20 -138 -6 -10 -9 -21 -16 -24
-16 -4 0 -7 32 -7 70 l0 70 -50 0 -50 0 0 -215z m222 8 c37 -44 26 -113 -22
-133 -38 -16 -67 -5 -86 32 -28 55 4 118 61 118 18 0 39 -8 47 -17z"/>
<path d="M10430 2080 l0 -70 -32 20 c-69 42 -154 13 -188 -63 -54 -118 8 -247
119 -247 34 0 56 6 75 21 l26 20 0 -20 c0 -18 6 -21 50 -21 l50 0 0 215 0 215
-50 0 -50 0 0 -70z m-20 -140 c31 -31 27 -93 -6 -119 -35 -27 -59 -26 -89 4
-35 34 -30 101 9 127 21 14 66 8 86 -12z"/>
<path d="M4730 1925 l0 -205 50 0 50 0 0 205 0 205 -50 0 -50 0 0 -205z"/>
<path d="M8879 2107 c-185 -98 -112 -387 98 -387 46 0 53 -3 77 -35 26 -33 30
-35 88 -35 l60 0 -45 54 -46 53 21 19 c73 66 76 216 5 292 -60 65 -175 82
-258 39z m162 -77 c25 -14 49 -62 49 -99 0 -73 -42 -121 -106 -121 -104 0
-148 126 -72 207 24 25 93 32 129 13z"/>
<path d="M5310 2085 c0 -28 -4 -35 -20 -35 -17 0 -20 -7 -20 -45 0 -38 3 -45
20 -45 19 0 20 -7 20 -89 0 -80 3 -93 23 -117 19 -22 34 -28 80 -32 l57 -4 0
40 c0 36 -3 40 -30 46 l-30 6 0 75 0 75 30 0 c29 0 30 2 30 45 0 43 -1 45 -30
45 -28 0 -30 3 -30 35 l0 35 -50 0 -50 0 0 -35z"/>
<path d="M4900 1885 l0 -165 50 0 50 0 0 103 c0 119 9 140 60 140 51 0 60 -21
60 -140 l0 -103 51 0 51 0 -4 130 -3 130 -31 31 c-41 41 -100 49 -148 21 -33
-20 -34 -20 -39 -1 -4 15 -14 19 -51 19 l-46 0 0 -165z"/>
<path d="M5593 2029 c-104 -51 -112 -219 -13 -286 25 -17 47 -23 90 -23 66 0
112 25 143 78 l19 32 -55 0 c-36 0 -59 -5 -67 -15 -17 -21 -63 -19 -83 3 -34
37 -22 42 92 42 121 0 122 1 110 63 -19 107 -132 158 -236 106z m121 -75 c32
-32 20 -44 -44 -44 -66 0 -79 15 -38 44 29 20 62 20 82 0z"/>
<path d="M5939 2027 c-45 -30 -69 -80 -69 -145 0 -65 29 -126 70 -147 43 -22
112 -19 144 6 l26 20 0 -33 c0 -51 -24 -78 -69 -78 -25 0 -44 7 -56 20 -13 14
-31 20 -63 20 -43 0 -44 -1 -37 -27 9 -39 52 -81 94 -93 96 -27 172 -1 209 70
20 41 22 57 22 227 l0 183 -50 0 c-43 0 -50 -3 -50 -20 0 -20 0 -20 -32 0 -44
27 -97 25 -139 -3z m151 -89 c42 -45 8 -138 -50 -138 -34 0 -70 44 -70 85 0
67 75 101 120 53z"/>
<path d="M6287 2043 c-4 -3 -7 -78 -7 -165 l0 -158 50 0 50 0 0 83 c0 105 13
130 65 137 l40 5 0 50 c0 47 -2 50 -24 47 -13 -1 -36 -11 -52 -23 l-29 -20 0
25 c0 24 -3 26 -43 26 -24 0 -47 -3 -50 -7z"/>
<path d="M6610 2043 c-24 -9 -61 -46 -78 -78 -20 -40 -20 -131 2 -173 36 -69
143 -96 200 -51 l26 20 0 -20 c0 -18 6 -21 50 -21 l50 0 -2 163 -3 162 -47 3
c-43 3 -48 1 -48 -17 l0 -21 -37 20 c-36 19 -82 24 -113 13z m130 -110 c27
-34 22 -89 -11 -115 -28 -23 -50 -23 -83 3 -20 16 -26 29 -26 61 0 52 22 78
66 78 24 0 38 -8 54 -27z"/>
<path d="M7175 2036 c-91 -40 -120 -159 -64 -252 52 -86 215 -86 269 1 11 18
20 35 20 39 0 13 -102 6 -116 -9 -23 -23 -70 -19 -88 7 -9 12 -16 26 -16 30 0
5 52 8 116 8 l117 0 -7 48 c-11 83 -65 133 -148 139 -31 2 -66 -2 -83 -11z
m106 -76 c10 -6 19 -20 19 -30 0 -17 -7 -20 -54 -20 -63 0 -75 11 -46 40 22
22 51 26 81 10z"/>
<path d="M7512 2035 c-46 -20 -68 -72 -48 -119 14 -33 34 -45 131 -74 43 -12
41 -46 -2 -50 -24 -2 -34 2 -43 17 -15 29 -100 31 -100 2 0 -26 34 -66 70 -81
48 -20 144 -9 175 20 22 20 25 32 23 69 -4 52 -29 76 -103 95 -54 13 -80 40
-55 56 18 11 51 3 66 -16 13 -16 94 -19 94 -4 0 6 -7 25 -16 41 -27 54 -120
75 -192 44z"/>
<path d="M8370 2028 c-56 -29 -80 -74 -80 -148 0 -99 60 -160 158 -160 29 0
66 7 82 15 32 16 70 61 70 81 0 20 -93 19 -110 -1 -18 -22 -77 -19 -90 4 -20
38 -13 41 100 41 l110 0 0 38 c0 118 -128 187 -240 130z m122 -75 c34 -31 23
-43 -42 -43 -64 0 -73 9 -43 42 20 22 61 23 85 1z"/>
<path d="M9250 1930 c0 -129 9 -164 52 -194 33 -23 109 -21 142 5 l26 20 0
-20 c0 -18 6 -21 50 -21 l50 0 0 165 0 165 -50 0 -50 0 0 -105 c0 -92 -3 -108
-20 -125 -26 -26 -62 -25 -86 1 -16 17 -20 40 -22 125 l-4 104 -44 0 -44 0 0
-120z"/>
<path d="M9647 2043 c-4 -3 -7 -78 -7 -165 l0 -158 50 0 50 0 0 165 0 165 -43
0 c-24 0 -47 -3 -50 -7z"/>
<path d="M10674 2032 c-111 -53 -120 -219 -14 -289 24 -17 47 -23 89 -23 111
0 175 66 168 173 -4 61 -22 95 -70 131 -38 28 -121 32 -173 8z m130 -94 c36
-51 1 -138 -54 -138 -52 0 -83 98 -43 142 23 26 78 24 97 -4z"/>
</g>
</svg>
